<?xml version="1.0" encoding="UTF-8"?>
<svg id="_圖層_1" data-name="圖層 1" xmlns="http://www.w3.org/2000/svg" viewBox="0 0 24 24">
  <path d="m8.68,21.1c-.38,0-.7-.13-.96-.39-.26-.26-.39-.58-.39-.96s.13-.7.39-.96c.26-.26.58-.39.96-.39s.7.13.96.39.39.58.39.96-.13.7-.39.96-.58.39-.96.39Zm9.2,0c-.38,0-.7-.13-.96-.39s-.39-.58-.39-.96.13-.7.39-.96.58-.39.96-.39.7.13.96.39.39.58.39.96-.13.7-.39.96-.58.39-.96.39ZM7.08,5.6l2.75,5.8h6.53c.15,0,.28-.04.4-.11s.22-.18.3-.31l2.58-4.68c.1-.18.11-.35.03-.49s-.23-.21-.43-.21H7.08Zm-.35-.7h12.5c.45,0,.79.18,1.01.54s.24.73.04,1.11l-2.65,4.85c-.13.22-.3.39-.51.51s-.44.19-.69.19h-7.05l-1.25,2.3c-.13.2-.14.42-.01.65s.31.35.56.35h10.55v.7h-10.55c-.53,0-.93-.22-1.19-.66-.26-.44-.26-.89-.01-1.34l1.55-2.75-3.7-7.75h-1.75v-.7h2.2l.95,2Zm3.1,6.5h7-7Z"/>
</svg>