<?xml version="1.0" encoding="UTF-8"?>
<svg id="_圖層_2" data-name="圖層 2" xmlns="http://www.w3.org/2000/svg" viewBox="0 0 100 100">
  <defs>
    <style>
      .cls-1 {
        fill-rule: evenodd;
      }
    </style>
  </defs>
  <g id="_圖層_1-2" data-name="圖層 1">
    <path class="cls-1" d="m49.81,100h.04s-.02,0-.02,0h-.03s0,0,0,0Zm.35,0h-.02.04s-.03,0-.03,0Zm-.51,0h.05s-.03,0-.03,0h-.02Zm.67,0h-.03.05s-.02,0-.02,0Zm-.81,0h.03s-.03,0-.03,0h0,0Zm.98,0h-.03s.03,0,.03,0h0Zm.16,0h-.01s.04,0,.04,0h-.03s0,0,0,0Zm-1.32,0h.04s-.01,0-.01,0h-.03s0,0,0,0Zm1.49,0h-.03s.05,0,.05,0h-.03s0,0,0,0Zm-1.64,0h.05s-.03,0-.03,0h-.03s0,0,0,0Zm1.8,0h-.04s.05,0,.05,0h-.01Zm-1.95,0h.05s-.04,0-.04,0h-.01s0,0,0,0Zm-.18,0h.04s0,0,0,0h-.04s0,0,0,0Zm2.29,0h0s.04,0,.04,0h-.04Zm-2.45,0h.06s-.02,0-.02,0h-.04Zm2.62,0h-.02s.06,0,.06,0h-.04Zm.16,0h-.04s.06,0,.06,0h-.02s0,0,0,0Zm-2.92,0h.06s-.04,0-.04,0h-.02s0,0,0,0Zm-.14,0h.04s-.04,0-.04,0h-.04s.04,0,.04,0Zm3.22,0h-.04s.04,0,.04,0h.04s-.04,0-.04,0Zm.16,0h-.02s.07,0,.07,0h-.05Zm-3.59,0h.07s-.02,0-.02,0h-.05Zm-.15,0h.07s-.04,0-.04,0h-.03Zm3.89,0h-.04s.07,0,.07,0h-.03Zm-4.04,0h.07s-.05,0-.05,0h-.02s0,0,0,0Zm4.2,0h-.05s.07,0,.07,0h-.02Zm-4.4,0h.07s-.02,0-.02,0h-.06Zm4.56,0h-.02s.07,0,.07,0h-.06s0,0,0,0Zm-4.7,0h.08s-.04,0-.04,0h-.04Zm4.86,0h-.04s.08,0,.08,0h-.04Zm-5.01,0h.08s-.05,0-.05,0h-.02Zm5.17,0h-.05s.08,0,.08,0h-.02Zm.16,0h-.07s.06,0,.06,0h.07s-.07,0-.07,0h0Zm-5.45,0h.06s-.07,0-.07,0h-.07s.07,0,.07,0h0Zm5.61,0h-.03s.08,0,.08,0h-.05Zm-5.83,0h.08s-.03,0-.03,0h-.05Zm-.14-.01h.08s-.05,0-.05,0h-.03s0,0,0,0Zm6.13,0h-.05s.08,0,.08,0h-.03s0,0,0,0Zm-6.26-.01h.07s-.07,0-.07,0h-.07s.06,0,.06,0h0Zm6.42,0h-.07s.07,0,.07,0h.06s-.07,0-.07,0h0Zm.16-.01h-.02s.08,0,.08,0h-.05s0,0,0,0Zm-6.79,0h.08s-.02,0-.02,0h-.05Zm-.14-.01h.07s-.04,0-.04,0h-.03s0,0,0,0Zm7.09,0h-.04s.07,0,.07,0h-.03Zm-7.23,0h.07s-.05,0-.05,0h-.02s0,0,0,0Zm7.39,0h-.05s.07,0,.07,0h-.02s0,0,0,0Zm-7.58-.02h.06s-.01,0-.01,0h-.05Zm7.73,0h-.01s.06,0,.06,0h-.05Zm.16,0h-.03s.06,0,.06,0h-.03Zm-8.04,0h.06s-.03,0-.03,0h-.03s0,0,0,0Zm-.14-.01h.05s-.04,0-.04,0h-.02Zm8.34,0h-.04s.05,0,.05,0h-.02Zm-8.49-.01h.02s0,0,0,0h-.01s0,0,0,0Zm8.65,0h0s.02,0,.02,0h-.01s0,0,0,0Zm.16-.01h-.01s.04,0,.04,0h-.02s0,0,0,0Zm-8.98,0h.04s-.01,0-.01,0h-.02s0,0,0,0Zm-.15-.01h.03s-.02,0-.02,0h0Zm9.28,0h-.02s.03,0,.03,0h0Zm-12.45-.39C18.3,95.64,0,74.94,0,50,0,22.4,22.4,0,50,0s50,22.4,50,50c0,24.94-18.3,45.64-42.19,49.39v-34.94h11.65l2.22-14.45h-13.87v-9.38c0-3.95,1.94-7.81,8.15-7.81h6.3v-12.3s-5.72-.98-11.19-.98c-11.42,0-18.89,6.92-18.89,19.45v11.02h-12.7v14.45h12.7v34.94Z"/>
  </g>
</svg>