<?xml version="1.0" encoding="UTF-8"?>
<svg id="_圖層_2" data-name="圖層 2" xmlns="http://www.w3.org/2000/svg" viewBox="0 0 100 100">
  <defs>
    <style>
      .cls-1 {
        fill: currentColor;
      }
    </style>
  </defs>
  <g id="_圖層_1-2" data-name="圖層 1">
    <g>
      <path d="m50,0c-13.58,0-15.28.06-20.62.3-5.32.24-8.96,1.09-12.14,2.32-3.29,1.28-6.08,2.99-8.86,5.77-2.78,2.78-4.49,5.57-5.77,8.86-1.24,3.18-2.08,6.82-2.32,12.14-.24,5.33-.3,7.04-.3,20.62s.06,15.28.3,20.61c.24,5.32,1.09,8.96,2.32,12.14,1.28,3.29,2.99,6.08,5.77,8.86,2.78,2.78,5.57,4.49,8.86,5.77,3.18,1.24,6.82,2.08,12.14,2.32,5.33.24,7.04.3,20.62.3s15.28-.06,20.61-.3c5.32-.24,8.96-1.09,12.14-2.32,3.29-1.28,6.08-2.99,8.86-5.77,2.78-2.78,4.49-5.57,5.77-8.86,1.24-3.18,2.08-6.82,2.32-12.14.24-5.33.3-7.04.3-20.61s-.06-15.28-.3-20.62c-.24-5.32-1.09-8.96-2.32-12.14-1.28-3.29-2.99-6.08-5.77-8.86-2.78-2.78-5.57-4.49-8.86-5.77-3.18-1.24-6.82-2.08-12.14-2.32-5.33-.24-7.04-.3-20.61-.3Zm0,9.01c13.35,0,14.93.05,20.2.29,4.87.22,7.52,1.04,9.28,1.72,2.33.91,4,1.99,5.75,3.74,1.75,1.75,2.83,3.42,3.74,5.75.68,1.76,1.5,4.41,1.72,9.28.24,5.27.29,6.85.29,20.2s-.05,14.93-.29,20.2c-.22,4.87-1.04,7.52-1.72,9.28-.91,2.33-1.99,4-3.74,5.75-1.75,1.75-3.42,2.83-5.75,3.74-1.76.68-4.41,1.5-9.28,1.72-5.27.24-6.85.29-20.2.29s-14.93-.05-20.2-.29c-4.87-.22-7.52-1.04-9.28-1.72-2.33-.91-4-1.99-5.75-3.74-1.75-1.75-2.83-3.42-3.74-5.75-.68-1.76-1.5-4.41-1.72-9.28-.24-5.27-.29-6.85-.29-20.2s.05-14.93.29-20.2c.22-4.87,1.04-7.52,1.72-9.28.91-2.33,1.99-4,3.74-5.75,1.75-1.75,3.42-2.83,5.75-3.74,1.76-.68,4.41-1.5,9.28-1.72,5.27-.24,6.85-.29,20.2-.29Z"/>
      <path class="cls-1" d="m50,66.67c-9.2,0-16.67-7.46-16.67-16.67s7.46-16.67,16.67-16.67,16.67,7.46,16.67,16.67-7.46,16.67-16.67,16.67Zm0-42.34c-14.18,0-25.68,11.5-25.68,25.68s11.5,25.68,25.68,25.68,25.68-11.5,25.68-25.68-11.5-25.68-25.68-25.68Z"/>
      <path class="cls-1" d="m82.69,23.31c0,3.31-2.69,6-6,6s-6-2.69-6-6,2.69-6,6-6,6,2.69,6,6Z"/>
    </g>
  </g>
</svg>