<?xml version="1.0" encoding="UTF-8"?>
<svg id="_圖層_2" data-name="圖層 2" xmlns="http://www.w3.org/2000/svg" viewBox="0 0 100 100">
  <defs>
    <style>
      .cls-1 {
        fill: currentColor;
      }
    </style>
  </defs>
  <g id="_圖層_1-2" data-name="圖層 1">
    <g id="_圖層_1-2" data-name=" 圖層 1-2">
      <g>
        <path d="m78.52,100H21.58c-.15-.04-.31-.11-.46-.13-1.07-.14-2.15-.21-3.2-.43-5.09-1.09-9.32-3.65-12.64-7.67C1.86,87.63.14,82.85.14,77.47V22.69c0-1.28.08-2.55.29-3.82.73-4.39,2.58-8.24,5.6-11.5C10.11,2.97,15.15.52,21.16.13c.14,0,.28-.08.41-.13h56.95c.13.04.27.11.4.13.92.12,1.86.16,2.76.34,4.67.93,8.69,3.08,11.97,6.55,4.08,4.31,6.2,9.44,6.21,15.39.02,18.39,0,36.79.01,55.18,0,1.32-.09,2.63-.34,3.92-.91,4.75-3.07,8.84-6.58,12.18-3.93,3.74-8.6,5.82-14.03,6.18-.14,0-.27.09-.4.13h0ZM50.03,18.11c-.91.05-1.83.06-2.74.15-1.53.15-3.08.27-4.59.54-4.02.71-7.85,2.03-11.43,4.01-4.14,2.29-7.68,5.27-10.39,9.17-2.42,3.47-3.89,7.3-4.21,11.53-.13,1.64-.09,3.29.15,4.93.37,2.56,1.14,4.99,2.31,7.29,1.87,3.65,4.48,6.68,7.72,9.18,5.17,4,11.05,6.23,17.48,7.14.83.12,1.62.37,2.34.82.47.3.79.7.86,1.28.03.3.11.6.08.89-.13,1.2-.29,2.4-.44,3.61-.08.66-.22,1.32-.23,1.98-.02.82.43,1.23,1.24,1.22.33,0,.66-.06.98-.15,1.39-.4,2.62-1.15,3.85-1.86,4.35-2.52,8.53-5.33,12.55-8.35,3.86-2.9,7.59-5.96,10.81-9.6,2.02-2.28,3.79-4.72,5.07-7.5,1.08-2.37,1.76-4.85,1.91-7.44.11-1.79.05-3.59-.25-5.37-.68-3.94-2.3-7.46-4.72-10.61-2.89-3.77-6.55-6.61-10.77-8.74-5.52-2.78-11.4-4.05-17.56-4.1l-.02-.02Z"/>
        <path class="cls-1" d="m21.58,0c-.14.04-.27.12-.41.13-6.01.39-11.05,2.84-15.13,7.24C3.01,10.62,1.16,14.47.43,18.86c-.21,1.27-.29,2.54-.29,3.82v54.78c0,5.38,1.72,10.16,5.14,14.3,3.31,4.02,7.55,6.57,12.64,7.67,1.05.23,2.13.29,3.2.43.16.02.31.09.46.13H0V0h21.58Z"/>
        <path class="cls-1" d="m78.52,100c.13-.04.27-.12.4-.13,5.42-.37,10.1-2.44,14.03-6.18,3.51-3.34,5.67-7.43,6.58-12.18.25-1.29.34-2.6.34-3.92,0-18.39,0-36.79-.01-55.18,0-5.95-2.13-11.08-6.21-15.39-3.28-3.47-7.3-5.62-11.97-6.55-.91-.18-1.84-.22-2.76-.34-.14-.02-.27-.09-.4-.13h21.48v100h-21.48Z"/>
        <path class="cls-1" d="m50.03,18.11c6.17.05,12.04,1.32,17.56,4.1,4.22,2.12,7.87,4.97,10.77,8.74,2.42,3.15,4.04,6.67,4.72,10.61.31,1.79.36,3.58.25,5.37-.15,2.59-.83,5.08-1.91,7.44-1.27,2.78-3.05,5.22-5.07,7.5-3.22,3.64-6.95,6.69-10.81,9.6-4.02,3.02-8.19,5.83-12.55,8.35-1.24.72-2.47,1.46-3.85,1.86-.31.09-.65.14-.98.15-.81.02-1.26-.4-1.24-1.22.02-.66.15-1.32.23-1.98.15-1.2.31-2.4.44-3.61.03-.29-.05-.59-.08-.89-.06-.58-.38-.98-.86-1.28-.72-.45-1.51-.7-2.34-.82-6.43-.91-12.31-3.15-17.48-7.14-3.23-2.5-5.85-5.53-7.72-9.18-1.17-2.3-1.94-4.73-2.31-7.29-.24-1.64-.27-3.3-.15-4.93.32-4.23,1.8-8.06,4.21-11.53,2.72-3.9,6.26-6.88,10.39-9.17,3.58-1.98,7.4-3.31,11.43-4.01,1.52-.27,3.06-.39,4.59-.54.91-.09,1.82-.1,2.74-.15l.02.02Zm6.36,29.15s-.09.03-.13.04c-.1-.12-.22-.22-.31-.35-.66-.88-1.31-1.77-1.96-2.65-1.4-1.89-2.8-3.77-4.18-5.67-.27-.36-.56-.52-1.01-.5-.58.03-1.16,0-1.75,0-.63,0-.84.2-.84.83v14.04c0,.61.23.82.86.83h1.75c.76,0,.9-.15.9-.9v-7.65c0-.19.02-.38.03-.57.04,0,.07-.03.11-.04.11.13.24.25.34.38.58.77,1.15,1.55,1.72,2.33,1.46,1.97,2.92,3.93,4.36,5.91.28.39.6.58,1.09.55.51-.04,1.03,0,1.55,0,.81,0,.97-.17.97-.95v-13.95c0-.63-.18-.8-.79-.81h-1.8c-.76,0-.91.15-.91.89v8.24Zm5.89-1.25v6.7c0,1.04.11,1.16,1.13,1.16h8.69c.47,0,.67-.21.68-.67.01-.73.01-1.47,0-2.2,0-.44-.2-.63-.65-.64-.43,0-.87,0-1.3,0h-4.54c-.45,0-.48-.04-.49-.48v-1.05c.01-1.23-.14-1.04,1.07-1.05h5.14c.54,0,.77-.17.78-.62.02-.77.01-1.53,0-2.3,0-.36-.2-.55-.55-.58-.13,0-.27,0-.4,0h-5.49c-.51,0-.54-.03-.54-.54v-1.45q0-.6.62-.6h5.59c.6,0,.78-.18.78-.77v-1.9c0-.69-.16-.84-.86-.84h-8.74c-.75,0-.9.16-.9.91v6.95l-.02-.03Zm-31.07,4.31v-11.4c-.03-.52-.26-.75-.78-.75h-1.95c-.63,0-.79.16-.79.8v14.09c0,.64.17.81.79.81h8.89c.58,0,.82-.24.83-.81v-1.8c0-.69-.2-.89-.89-.89h-5.44c-.2,0-.39-.02-.67-.03v-.02Zm9.1-4.36v7.09c0,.59.22.81.81.81.65,0,1.3,0,1.95,0,.53,0,.74-.24.74-.78v-14.18c0-.56-.19-.73-.76-.74h-1.85c-.75,0-.9.15-.9.91v6.89h0Z"/>
        <path d="m56.39,47.26v-8.22c0-.75.15-.89.91-.89h1.8c.62,0,.79.18.79.81v13.95c0,.79-.17.95-.97.95-.52,0-1.03-.03-1.55,0-.49.03-.81-.16-1.09-.55-1.45-1.98-2.91-3.94-4.36-5.91-.57-.78-1.15-1.55-1.72-2.33-.1-.14-.23-.26-.34-.38-.04,0-.07.03-.11.04,0,.19-.03.38-.03.57v7.65c0,.76-.15.9-.9.9h-1.75c-.63,0-.86-.22-.86-.83v-14.04c0-.63.21-.83.84-.83.58,0,1.17.02,1.75,0,.45-.02.74.13,1.01.5,1.38,1.9,2.79,3.78,4.18,5.67.65.88,1.31,1.77,1.96,2.65.09.12.21.23.31.35.04,0,.09-.03.13-.04v-.02Z"/>
        <path d="m62.28,46v-6.95c0-.75.16-.91.9-.91h8.74c.7,0,.86.15.86.84v1.9c0,.59-.18.77-.78.77h-5.59c-.61,0-.62,0-.62.6v1.45c0,.51.03.54.54.54h5.89c.35.04.55.23.55.58.01.77.02,1.53,0,2.3,0,.45-.23.62-.78.62h-5.14c-1.21,0-1.05-.17-1.07,1.05v1.05c0,.44.04.48.49.48h5.84c.45,0,.65.2.65.64.01.73.01,1.47,0,2.2,0,.46-.21.66-.68.67-.48,0-.97,0-1.45,0h-7.24c-1.02,0-1.13-.12-1.13-1.16v-6.7l.02.03Z"/>
        <path d="m31.22,50.31c.28,0,.47.03.67.03h5.44c.68,0,.88.2.89.89v1.8c0,.57-.25.81-.83.81h-8.89c-.62,0-.79-.17-.79-.81v-14.09c0-.65.15-.8.79-.8h1.95c.52,0,.75.23.78.75v11.42Z"/>
        <path d="m40.3,45.95v-6.89c0-.76.15-.9.9-.91h1.85c.57,0,.76.18.76.74v14.18c0,.54-.21.77-.74.78-.65,0-1.3,0-1.95,0-.59,0-.81-.22-.81-.81v-7.09h0Z"/>
      </g>
    </g>
  </g>
</svg>