<?xml version="1.0" encoding="utf-8"?>
<!-- Generator: Adobe Illustrator 27.2.0, SVG Export Plug-In . SVG Version: 6.00 Build 0)  -->
<svg version="1.1" id="a" xmlns="http://www.w3.org/2000/svg"
	xmlns:xlink="http://www.w3.org/1999/xlink" x="0px" y="0px"
	viewBox="0 0 225 420" style="enable-background:new 0 0 225 420;" xml:space="preserve">
<style type="text/css">
		.st0{fill:none;stroke:#000000;stroke-miterlimit:10;stroke:currentColor;stroke-width:1}
</style>
<path id="b" class="st0" d="M27.1,331.9l1,0.3l0.1,0.2l0.2,0.1v0.2l0.2,0.1l0.1,0.3l-0.1,0.3l0.2-0.1l0.2,0.2l0.1,0.2l-0.1,0.1
	l0,0.3l0.3,0.4v0.3l0.6,0.3l0.6,0.9l0.7,0.8l0.1,0.4l-0.2,0.2l0.2,0.1l0.3-0.3L32,338l0.2,0.1l0.1,0.3h0.1l0.7,0.7l-0.3,0.3
	l-0.3-0.1l-0.4-0.6h-0.2l-0.2,0.1l-0.2-0.3l-0.4-1l-0.7-0.8l-1.2-1.6l-0.7-0.8l-0.4-0.7l-0.7-0.8l-0.1-0.2l-0.4-0.4l-0.1,0.1
	l-0.2-0.1v-0.3l0.2-0.2L27.1,331.9L27.1,331.9z M157.8,269.1l0.1,0.2l0.3-0.1h0.3l0.1,0.2l-0.2,0.2l-0.3,0l-0.2,0.2l-0.2-0.1
	l-0.5,0.1v-0.2L157.8,269.1L157.8,269.1L157.8,269.1z M14,240.2l0.1,0.1h0.3l0.1,0.3l-0.1,0.1l0.2,0.4l-0.1,0l-0.2-0.3l-0.3,0
	l-0.2-0.3l-0.1-0.1l0.1-0.2L14,240.2L14,240.2L14,240.2z M14.3,230.9l0,0.2l0.3,0.1l-0.1,0.4l-0.4-0.2l0-0.3L14.3,230.9L14.3,230.9
	L14.3,230.9z M167.2,227.6L167.2,227.6v0.5l-0.3,0l0-0.2l0.1-0.1L167.2,227.6z M15.2,196.3l0,0.3l0.2,0l0.1-0.2h0.2l0.2,0.2
	l-0.2,0.1H15l-0.1-0.1l0.1-0.2L15.2,196.3L15.2,196.3z M182,165l-0.1,0.3l-0.4,0.4l0-0.3l0.6-0.9l0.1-0.5h0.1v0.5L182,165L182,165z
	 M44.3,151.2l0.2,0.1l0,0.3l-0.4,1l-0.6,0.3l-0.1,0.2l0,0.3l-0.1,0l-0.1,0.5l-0.6,0.6l-1.3,0l-0.2,0l-0.1,0.1l-0.5-0.1l-1.7,0.1
	l-0.2-0.2l-0.1-0.1l0.1-0.3l1.3-2.9l0.2-0.1l2.8,0L44.3,151.2L44.3,151.2L44.3,151.2z M100.7,63.9L100.7,63.9l-0.1-0.2l0.2-0.1
	L100.7,63.9L100.7,63.9z M171.3,0.6l0.3,0.3l-0.1,0.3l0.1,0.2l0.2,0.1l0.4,0l0.1,0.1l0.3,0l0.2,0.1l0.4-0.3l0.7,0.1h0.2l0.1-0.1
	l0.5,0l0-0.4l0.2-0.1l0.1-0.2h0.4l0.5-0.1l0.4,0.3l0.1,0.2l0.3-0.1l0,0.2l0.5,0.4l0.4-0.1l0.3,0.1l0.1-0.1h0.3L178.1,2l0.2,0
	l0.2,0.2h0.2l0.2,0.3h0.1l0.2,0.4l0.4,0.1l0.2,0.1l0.6,0.1l0.1,0.2h0.1l0.4,0.5l0.6,0.5l0.1,0.2l0.4,0.4l0.3,0.6l-0.1,0.4l0.2,0.9
	l-0.2,1.3l0.4,0.1l0.2,0.4l0.2,0.2l0.2-0.1l0.2,0l-0.1,0.5h0.3l0.1-0.2l0.4,0.1l-0.1-0.2l0.3-0.1l0,0.3l0.2,0.3l-0.2,0.2l0,0.2
	l-0.4,0.3l0.1,0.1l0.2,0.5l1,1.2l0.2-0.1l0.1,0.2l0.2,0.1l0.2,0.3l0.4,0.2l0.2,0.1l0.3-0.1v-0.2l0.1-0.1h0.2l0.3,0.3l0.8-0.8h0.1
	l0.1,0.5l0.1-0.3h0.2l0.4-0.3l0.2-0.5h0.1l0.2-0.3l0.2-0.1l0.1,0.2l-0.2,0.2l-0.4,0.3l-0.1,0.2L189,12l-0.1,0.4l0.3,0.3l-0.2,0.2
	l0,0.2h-0.2l-0.2,0.2l-0.1,0.3l-0.4,0.2l-0.1,0.5l0.1,0.3l0.2,0.5l0.4,0.4l0.3-0.1l0.1,0.2h0.1l0.1-0.2l0.1,0.1l0.5,0.1l0.2,0.5
	l0.6,0.1l0,0.1l-0.1,0.1l0.1,0.5l-0.2,0.1l-0.1,0.4l0.1,0.2l0.9-0.2l0.3,0.1l0.8-0.1l0.2,0.2h0.4l0.2,0.2l0.3,0.2l0.4-0.1v0.2
	l0.3,0.3l0.2-0.1l0.3,0.1h0.5l0,0.1l0.2,0.1l0,0.1l-0.4,0l-0.2,0.4l0.2,0.1l0.1-0.4l0.2-0.1l0.1,0.3l-0.2,0l0,0.1l0.2,0l-0.2,0.2
	v0.1l0.1,0.1l0.1-0.2h0.2l0.1,0.1l-0.2,0.2l0,0.2l-0.3,0.1l-0.2,0.2l-0.5,0.2l0,0.2l-0.2,0.2l-0.1,0.5l0.2-0.1l0.4-0.8l0.7-0.2
	l0.2-0.3l0.4-0.2V20l0.2-0.3l0.8-0.6l-0.1-0.2H197l-0.1,0.3l-0.2,0.1l-0.1-0.2l-0.2-0.1l0.1-0.4l-0.2-0.1l-0.1,0.2l0-0.1l0.2-0.5
	l0.4,0l0.1-0.3l0.3,0l0.5,0.2l0.1,0.2l0.7,0l0,0.2l-0.3,0.2l-0.3,0l-0.1,0.2h0.4l0.2,0.3h0.2l0.1,0.1l0.6,0l0.1,0.2l0.3,0.1
	l-0.1,0.2h-0.1l0,0.1l0.4,0.1l0,0.2l0.4-0.1l0.2,0.3l0.2,0l0-0.2l-0.2-0.3l0-0.2l0.4-0.1l0.5,0.2l0.1-0.1l0.5,0l0.2-0.1v0.1l0.1,0.1
	l-0.4,0.3l-0.2,0.5l0.1,0.1v0.4l0.3,0.1l0.3,0.3l0.5-0.1l0.1,0.1l0.4,0l0.4-0.3l0.4,0.1l-0.2,0.3l-0.2,0l0.1,0.2l-0.2,0.1l-0.2,0.3
	l0.2,0.4l-0.1,0.2l0.2,0.2h0.3l0.1-0.1l0.1-0.2l0.2-0.1l0.1-0.3l0.1,0.1l0.2-0.1l1.2-0.1l0.1,0.2l0.8,0l0.4,0.2h0.2l0.1,0.1l0.6-0.2
	l0.2,0.1l0.1,0.3h0.2l0.3-0.2l0.1-0.1h0.6l0.2,0.3l0.1-0.1l0.7,0l0.2,0.1l0.4,0l0,0.4l0.6-0.1l0.4,0.1l0.1-0.1l0.1,0.1l0.4-0.4h0.1
	l0.2,0.2l0.3,0l0.4-0.2l0.2,0l0.2-0.4l0.4,0l0.4-0.2l0.2,0l-0.2,0.7l-0.2,0.1l-0.1,0.4l-0.8,0.6l0,0.1l0.5,0.1l0.5-0.2V24l0.1,0
	l-0.1,0.4l0.1,0.2l-0.1,0.1l0,0.4l-0.2,0l-0.3,0.3l0.1,0.6l-0.1,0.2h-0.2l-0.1,0.1v0.3l-0.2,0.2l0,0.7l0.1,0.2h0.2l0.1,0.1v0.3
	l-0.1,0.1l0.1,0.3l0.2-0.1l0.4,0.5l0.3,0l0.1,0.5l0.9,0.4v0.4l-0.1,0.1l-0.4,0.1l-0.2,0v0.2l0.2-0.1l0.1,0.2l0.2,0l0.2,0.1v0.4
	l-0.2,0.1l0,0.3l-0.2,0l0.1,0.1l0.2,0l0,0.4l0,0.1l-0.2,0.1l0,0.3l0.4,0.6l0,0.3l0.2,0.1l0,0.2L217,35l-0.1,0.2l-0.4,0l0,0.2l0.5,0
	l0.6,0.3h0.5l0.1-0.4l1.1,0.1l0.4-0.1l0.2,0l0.7-0.4l0.6,0l0.2,0.1l0.1,0.2l0.4,0l0.2,0.2h0.2l0.3,0.2l-0.1,0.7l0.1,0.2l0.2,0
	l0.4-0.4l0.1-0.4l0.3,0.4l0.3,0l0.2,0.3l0.2,0.1l0.1,0.3l-0.1,0.2l0.1,0.1l-0.1,0.6l-0.2,0.1l-0.7,0l-0.2,0.1l0,0.2h-0.5l-0.2,0.1
	l-0.7,0.7l-0.6,0.1l-0.6,0.7h-0.2l-0.7,0.4h-0.7l-0.3,0.2l-1,0.4l-0.6,0.4l-1,0.2l-0.5,0.3l-0.5,0.6l0,0.4l-0.5,0.4l-0.2,0.7
	l-0.2,0.2l-0.6,0.1l-0.2,0.3l-0.4,0.2l0.1,0.5l-0.1,0.2h-0.6l-0.4-0.1l-0.6,0.4l-0.5,0.6v0.2l0.2,0.2l0,0.5l-0.3,0.3l0.1,0.7
	l-0.4,0.4l-0.2,0.1l-0.2,0.3l-0.3,0.2l-0.6,0.8l-0.2,0.1h-0.4l-0.3,0.7l-0.6,0.6l-0.4,0.2h-0.3l-0.2,0.2l-0.2,0.7l-0.5,0.4l-0.3,0.5
	l-0.2,0.8L205,55l-0.9,2.8l-0.4,1.8l-0.6,4.1l-0.1,2.9l0.1,1.9l0.4,1.9l1.6,4l-0.1,2l0.2,2.6l0.6,2.7l0.7,1.8l1.1,2.3l0.8,0.8
	l0.4,0.2l0.5,0l0.2,0.1l0.1,0.3h0.6l0.2,0.2h0.4l-0.1,0.2l0.2,0.2l-0.1,0.1l-0.9,0.1l-0.3,0.2l-0.1,0l0-0.1l0.7-0.4l-0.1-0.2
	l-0.9,0.3l-0.1-0.3l-0.6-0.3l-0.6,0.2l-0.2,0.2l0.1,0.5l-0.1,0.1L208,88l0,0.4l0.1,0.1l0.4-0.4l0.2,0.1l0,0.4l-0.2,0.2l0.1,0.2
	l-0.2,0.1l0.1,0.3l0.4-0.1l0.2-0.2l0.1,0.3h0.4l0.5-0.8l0.2-0.2l0.1,0l-0.6,0.9l-0.2,0.2l0,0.2l0.6,0.6l-0.1,0.1l-0.2-0.1l-0.2,0.2
	l-0.3-0.1l-0.2,0.5l0.1,0.7l0,1.8l0.1,0.3v0.3l0.3,0.3l-0.2,0.5v0.3l0.1,0.3l0.2,0.2h0.2l0.1,0.1l-0.4,0.1l-0.1,0.3l-0.3,0.2l0,0.2
	l-0.5,0l-0.1-0.1l-0.5,0.2l-0.4,0.3l-0.5,0.2l-1,0.2l-0.2,0.2l-0.3,1.1l0,0.8l0.1,0.6l0.2,0.2l0.4,0l0.1,0.2l0.3,0l0.1,0.1l0.3,0.1
	l0.1,0.2l-0.2,0.1l0.1,1l0.2,0.2l0.9,0l0.2,0.3l0,0.2l-0.2,0.1h-0.4l-0.1-0.2l-0.9,0.1l-0.2,0.2l-0.4,0l-0.2,0.2l-0.4,0.6l-0.4,0
	l-0.2,0.2l-0.1,0.2l-1,0.4l-0.3,0.3l0.1,0.3l-0.1,0.1l0,0.2l0.1,0.1l0.1,0.4l-0.2,0.1l-0.4,0.4l-0.2,0.4l-0.3,0.3l-0.9,0.6l-0.6,0.8
	l-0.9,2.2l-0.2,1.4l-0.1,0.3l0,1.4l-0.2,0.7l0,0.6l-0.1,0.3l0.1,0.1l0,0.4l-0.3,0.3l-0.1,0.3l-0.2,0.2l0,0.4l-0.4,0.6l-0.1,0.4
	l-0.4,0.9l-0.3,1l-0.2,0.2v0.4l0.4,1.8l-0.1,1.4l-0.2,0.3l-0.1,0.4l-0.5,0.4l-0.1,0.2l-0.8,0.6l-0.5,0.6l-0.6,1.5l-0.2,1.8l-1,0.9
	l-0.2,0.4l-1,0.8l-0.6-0.1l-0.5,0.4l-0.7,1.1l-0.1,0.6l-0.2,0.3l-1.1,0.5l-0.2,0.2l-0.2,0.1l-0.3,0.1l-0.6,0.6l-0.3,0l-0.2,0.2
	l-0.4,0.1l-0.4,0.4l-0.2,0.6l-0.1,0v0.2l-0.4,0.3l-0.1,0.3l-0.2,0.2l-0.3,0.8l-0.3,1.1l0.2,1.7l0.5,0.9l0.1,0.6v1.2l-0.3,0.9
	l-0.9,1.5l-0.4,0.4l-0.9,0.7l-0.8,0.4l-1.1,1l-1.1,2.1l-0.2,1.1l0,1.8l0.5,1.9l0.9,1.8l0.4,0.4l0.2,0.4l0.5,0.5l0.5,0.3l0.2,0.2
	l0.4,1l0,0.4l-0.4,0.4l-0.2,0.6l-0.2,0l-0.3,0.4l-0.1,0.3l-0.1,0.6l-0.4,0.5l0.1-0.6l0.3-0.5l0.1-0.8l0.1-0.1l0-0.5l-0.1-0.2l-0.1,0
	v0.5l-0.1-0.2h-0.1v0.4l0.2,0.4l-0.2,0.8l-0.6,0.8l-0.5,0.2l-0.1,0.2l0.1,0.3l0.2,0.3l-0.1,0.3h-0.1l-0.4-0.5h-0.4l-0.4,0.2v0.2
	l-0.3,0.4v0.4l-0.7,0.7l0,0.4l-0.2,0.2v0.5l0.4,1l0.2,1.4l-0.2,0.4v0.5l-0.3,0.6l-0.2,1l-0.1,0.1l-0.1,0.8l0.1,0.2l0.1,0.5l-0.4,3.1
	l-0.6,2.7l-0.5,1.5l-0.2,0.2v0.2l-0.4,0.9l-0.2,0l-0.1,0.3l0.1,0.3l-0.2,0.8l-0.5,0.7l-0.2,0l-0.1,0.3l-0.2,0.1l0,0.3l-0.2,0.6
	l-0.2,0.8l0.1,0.4l-0.1,0.5h-0.1l0.1,0.2l-0.2,0.6l0.1,0.2v1.4l-0.1,0.6l0.3,0.1l0.1,0.3l-0.1,0.4l-0.2,0.2l0.1,0.1l-0.3,0.5l0,0.3
	l-0.2,0.2v0.4l-0.2,0.3l-0.2,0.2l0,0.3l-0.3,0.2l-0.1,0.6l-0.3,0.3l0.1,0.1l-0.2,0.2l-0.4,0l-0.2,0.7l-0.2,0.1l0.1,0.2l-0.1,0.1
	l-0.1,0.7l0.2,0.7l-0.1,0.2l0.2,0.3l0.3-0.2l0.1,0.1l-0.1,0.2l-0.1,0.5l-0.2,0.2v0.5l-0.2,0.2l0.1,0.1l-0.1,0.5l-0.4,0.7l0,0.2
	l0.2,0.2l-0.2,0.4l-0.2,0.2l0.2,0.4l-0.2,0.2l-0.2,0.6l0.2,0.6l-0.2,0.3l-0.4,0.1l-0.4,0.6l-0.1,0.4l-0.1,0.8l-0.4,0.8l-0.1,1.5
	l0.1,2.3l-0.1,0.8l-0.1,0.1l-0.1,0.5l0.1,0.1l-0.1,0.3l-0.1,0l-0.1,0.2l0.1,0.7l-0.1,0v0.2l-0.2,0.2l0,0.2l-0.1,0.1l0,0.6l-0.2,0.1
	l-0.4,0.6l0,0.2l-0.2,0.1l-0.2,0.6l-0.2,0.1l0.1,0.2l-0.2,0.2l0,0.4l-0.3,0.9l0.1,0.1l-0.2,0.5l0,0.3l-0.3,0.2v0.5l-0.2,0.6l0.2,1.1
	l-0.2,0.5l0.1,0l0,0.3l0.2,0l-0.1,0.7l0.2,0.3l0.1,0.4l0.7,0l-0.1,0.4l0.1,0.1v0.2l-0.1,0.1l0,0.4l0,0.1l0.4-0.1v0.2l-0.7,0.2
	l-0.1,0.2l0,0.3l-0.1,0.1l0,0.2l0.1,0.2l-0.4,0.1l-0.3,0.5l-0.5-0.1l-0.2,0.2l-0.5,0l-0.4-0.2l-0.2,0l0.4,0.2h0.2l0.2,0.2h0.2
	l0.2,0.2l0.2,0l0.2,0.1l0.1,0.1v0.1l-0.4,1.2l-0.2,2.3l-0.2,0v0.3l-0.2,0.1l-0.1,0.3l-0.3,0.3l-0.1,0.7l-0.1,0.1l-0.1,0.4l-0.2,0.2
	l-0.1,0.5l0.1,0.3l-0.2,0.3l0,0.5l-0.4,0.1l-0.1,0.3l0,0.7l-0.2,0.2l0.1,0.6l-0.1,0l-0.3,1.3v0.3l0.2,0.4l0,0.2l0.1,0.1l-0.4,0.6
	l0.1,0.6l-0.2,0l-0.1,0.2l-0.2,0.6l0.1,0.5l-0.1,0.9l0.1,0.4l-0.1,0l-0.1,0.2l0.1,0.6l-0.1,0.3l-0.2,0.1l-0.2,0.4l0.1,0.3l-0.1,0.2
	h-0.3l-0.1-0.1l-0.3,0l-0.3,0.1L161,247l-0.1,0.3l-0.5,0.5l-0.3,0.7l-0.5,0.7l0,0.4l-0.2,0.1l-0.2,0.2l-0.4,1.2l0.2,0.3l-0.1,0.9
	l-0.4,0.2l-0.2,0.3v0.2l-0.2,0.6v0.6l-0.1,0.3l-0.1,1l-0.1,0.3l-0.2,0.2l-0.1,0.5l0.1,0.4l0.3-0.1l0.2,0.2v0.3l-0.4,0.5l-0.2,0.1
	l-0.5,0.9l-0.3,0.2l-0.6,0l-0.1,0.4l-0.4,0.2l-0.2,0.3l-0.1,1l0.1,0.4l0.2,0.3l0.1,0.8l0.4,0.7l0.1,0l0.1,0.1l0-0.1l0.2,0l-0.4,0.8
	l0.2,0.2l0.2,0.3h0.1l0.1,0.3v0.4l-0.2,0.4l-0.1,0.7l-0.2,0.3l-0.4,0.2l-0.1,0.2l0.1,0.5l-0.2,0.8l0.2,0.2l0.2,0.7l0.3,0.3l0.7,0.3
	h0.2v0.3l-0.2,0.1l-0.4,0.6l-0.4,0.2l-0.3,0l-0.3-0.3h-0.2l-0.2,0.4l-0.1,0.4h-0.1l-0.3,0.5l-0.2,0.1l-0.1,0.3l-0.1,0.1l0.1,0.2
	l-0.1,0.1v0.3l-0.2,0.2l-0.1,0.3h-0.1l-0.1-0.2h-0.2l0-0.2h-0.2l-0.1,0.2l-0.2-0.1l-0.2,0.1l-0.7-0.1l-0.2,0.1v0.1l-0.2,0.1l0,0.3
	l-0.2,0.1l-0.3,0.4l-0.1,0.2l-0.1,0.1l0.1,0.2l0.1,0v0.2l-0.4,0.3v0.1l0.2,0.3l0,0.3l-0.4,0.2l-0.1,0.2l-0.3,0l-0.2,0.5l-0.1,0.7
	l-0.1,0.2l0,0.8l-0.2,0.3l0.1,0.5l-0.4,0.5l0.1,0.3l-0.2,0.1l-0.2,0.7l0,0.3l0.2,0v0.2l-0.1,0.2l-0.2,0.1l0,0.3l-0.1,0l-0.1,0.1
	l0,0.1l0.2,0.1l0,0.2l-0.4,0.3h-0.3l-0.3,0.2l-0.1,0.3l0.1,0v0.3l-0.3,0.1l0.1,0.2l0,0.2l-0.4,0.2l-0.2,0.9l0.2,0.3v0.3l-0.2,0.4
	l-0.4,0.4l-0.2,0.6l-0.3,0.3v0.3l-0.5,0.6l-0.2,0l-0.2,0.3l-0.6,0.5l-0.1,0.5L144,290v0.1l-0.5,0.4l-0.4,0l-0.2,0.2l0,0.3l-0.3,0.1
	l-0.5,1.2l-0.1,1.1l-0.5,0.4l0,0.5l-0.2,0.4l0,0.3l-0.4,0.4l-0.1,0.3l-0.8,0.6l-0.2,0.5l0,0.5l-0.1,0.1h-0.2l-0.3,1l-0.1,0l-0.1,0.2
	l-0.2,0.1l-0.4,0.7l-0.2,0.1l-0.5,0l-0.2,0.2l-0.4,0.8l0,0.4l0.1,0.2l-0.2,0.3l-0.4,0.1l-0.6-0.4h-0.2l-0.4,0.1l-0.1,0.3l-0.7,0
	l-0.3,0.2l-0.6-0.1l-0.1,0.4l-0.7,0.3l-0.2,0.4l-0.2,0.2l-0.4,0.1l-0.5,0.7l0.1,0.6l-0.1,0.6l-0.4,0.4l0,0.5l0.1,0.2l0.4,0.1
	l0.2,0.2l0,0.4l0.1,0.1l0.2,0.1l-0.1,0.3l0.3,0.4l0.4,1.2l0.2,1.4l-0.2,0l-0.1,0.2l-0.6,0.4h-0.1l-0.2-0.3l-0.2,0.1l-0.7,0.8
	l-0.1,0.2l-0.1,1l-0.2,0.6l-0.1,0.1l-0.1,0.3l-0.2,0l-0.2,0.1l0.1,0.3l0.1,0l0,0.4h0.1l0.2-0.6l0.1,0l-0.1,0.4l-0.4,0.8l-1.1,0.7
	l-0.6,0.1l-1.2,1.1l-0.2,0.3l-0.2,0.1l-0.1,0.2l-2.4,2.4l-0.8,0.3l-1.5,1h-0.6l-0.7,0.2l-1.1,0.6l-0.9,0.7l-0.3,0l-1.3,1.4l-0.6,0.4
	l-1.7,0.7l-0.5,0.4l-1,1.2l-1.1,2.6l-0.5,2.1l-0.3,2.7l0.1,0.7l-0.1,0.4l-1,1.1l-0.3,0.1l0.1,0.1H110l-1.4,1.3l-0.4,0.5l-0.4,0.9
	l-0.6,1.8l-0.1,0.6l-0.5,1.4v0.2l-0.1,0.1l-0.2,0.9l-0.5,1.2l-0.1,0.9l-0.9,2.8l-0.6,2.6l-0.2,0.1l0,0.2l0.1,0.1l-0.5,1l-0.9,2.7
	l-0.2,0.4l-0.4,0.5l-0.1,0.5l-0.2,0.3l-0.4,1.4l-0.8,1.4l-0.4,1.7l-0.2,0.6l0,0.5l-0.1,0.4l-0.7,0.6l-0.2,0.7l-0.4,0.7v0.3l-0.4,0.6
	l-0.1,0.9l-0.1,0.1l-0.2,2l0,3.7l0.1,1.9l0.4,1.8v0.8l0.4,0.9l0,0.7l-0.1,0.2l-0.2,0.1l-0.3,1.2l0.2,1.1l0.2,0.3v0.5l-0.1,0.1
	l0.1,0.2l-0.1,0.1l-0.2,0.2l-0.2,0l-0.2,0.2l0,0.6l0.1,0.3v0.8l0.2,0.7v0.6l-0.2,0.4l0,0.4l0.1,0.3l0.2,0.2l0.1,0.6l-0.3,0.7
	l0.5,0.4l0.1,0.3l-0.2,0.4l-1.1,0.8v0.2l0.1,0.7l0.4,1.5l0.3,0.4l0.4,0.1l0.2,0.2l0.6,0.2l0,0.2H99l-0.2,0.2l0,0.5l-0.1,0.5l-0.1,0
	l-0.2,0.4l-0.5,0.5l0,0.5l-0.1,0.5l0.1,0.5l0.2,0.3l-0.1,0.7l0.1,0.6v1.6l0.2,0.4l0.2,0.6l0.2,0.3l0.1,0.4l-0.4,0.2l-0.9,0.8
	l-0.1,0.2l0.1,0.8l-0.1,0.1l-0.6,0.4l-0.6,0.2v1l-0.2,0.5l-1.1,0.5l-0.5,0.5l-0.2,0l-0.6,0.4l-0.6-0.1l-0.3,0.2l-0.4-0.1l0.1,0.2
	l0.1,0l0,0.3l-0.1,0l0,0.5l0.2,0l0.1,0.6l-0.6,1.8l0.2,1.4l0.3,0.8l0.4,0.6l0,0.3l0.6,0.4l0.9,1.5l0.1,0.6l-0.1,0.3l0.1,0.5l0.3,0.3
	l0.2,0.1l0.1,0.2l-0.2,0.3l-0.4,0.2h-0.9l-0.3-0.2l-0.3-0.4v-0.3l-0.1-0.2l0.1-0.9l-0.1-0.1l-0.6,0l-0.4-0.2l-0.2-0.3l-0.2-0.7
	l-0.9-0.8l-0.4-0.6l-0.6,0.2h-0.5l-0.5-0.2l-0.3-0.7h-0.1l-0.1,0.4l-0.2,0.1l-0.3-0.1l-0.1-0.6l-0.1-0.1l-0.9-0.2l-0.7,0.1l-0.1-0.2
	l-0.4-0.3l-0.1-0.2l-0.4-0.1l-0.4-0.2l-0.4-0.7l-0.4-0.2l-0.4,0l-0.1,0.2l-0.3,0.1l-0.1,0.4l-0.7,0.2l-0.2,0.3l-0.2,0.6l0,0.4l0,0.4
	l0.1,0.2v0.6l-0.1,0.1l-0.2-0.1l-0.2,0.4l-0.3,0.1v0.8l-0.1,0.1l-1.4,0.1l-0.5-0.4l-0.4-0.8l-0.1-0.8l-0.3-0.1l-0.3,0.2l-0.2,0
	l-0.1-0.4v-0.7l0.2-0.8l0.1-1.2l-0.1-0.7l0.4-0.6l0-0.8l-0.3-0.8l-0.5-0.4l0-0.4l-0.2-0.5l-0.1-0.1l-0.4,0l-0.3-0.2l-0.6-1l-0.2-0.8
	L75,405l0-0.3l-0.3-0.6l-0.1-0.7l0.2-0.7l0.3-0.4l0.9-0.5l0.1-0.2l-0.2-0.1l-0.2-0.6l0.3-0.8l0.2-0.1l0.3,0.1l0.4,0l0.2-0.3l0.1-0.6
	l0.4-0.3v-0.1h-0.1l-0.3,0.2l0-0.6l-0.4-1.2l-0.1-0.2l-0.2-0.1l0-0.2l0.4-0.4l0.5,0l0.4-0.3l0.2-0.2l0-0.2l0.1,0.2l0.2-0.1l0.1-0.3
	l-0.2-0.5l0-1l-0.3-0.4l-0.1-0.7l-0.3-0.5l0.1-0.6l-0.2-0.1l-0.1-0.3l-0.4-0.2l-0.2-0.3l0-0.3l0.1-0.4l-0.4-0.1l-0.1-0.2l0-0.5
	l0.3-0.6l-0.1-0.3l-0.3-0.3l-0.1-0.5l0.1-0.4l-0.4-1l-0.1-1L75,384l-0.4-0.4l-0.2-0.7v-0.3l0.2-0.4l0-0.5l-0.3-0.6l-0.2-0.3l0-0.2
	l-0.4-0.4l-0.1-0.6l-0.2-0.1l0-0.5l-0.5-0.8l-1.3-1.4l-0.9-0.6l-0.2-0.3v-0.6l0.1-0.5l0.2-0.2v-0.4l-0.3-0.6l-0.2-1.1L70,372
	l-0.2-2.1l-0.5-0.6l-0.2-0.6l-1.9-2l-0.8-0.5l-0.5-0.5l-0.5-1l-0.2-0.9l-0.4-0.4l-0.2-0.4l-0.2,0.1l-0.3-0.2l0.1-0.3l-0.6-0.7
	l-0.3-0.1l-1.6-1.3l-0.5-0.3l-0.2-0.2l-0.2-0.1l-0.5-0.5l-0.7-0.4l-0.3-0.3l-0.3-0.1l-1.6-1l-1.6-0.8l0.1-0.3l0-0.3l0.2-0.3l0.4-0.9
	l0-0.6l-0.1,0.1l-0.1,0.3l-0.2,0.1l-0.1,0.4l-0.4,0.5l-0.1,0.2l-0.2,0.2l-0.3,0.1l-1.2-0.8l-2.6-1.3l-2.6-1.8l0-0.2l0.3-0.1h0.4
	l0.2,0.3l0.5,0.3l0,0.2l0.1,0.1l0.6,0.2l0.2,0.4l0.5,0.3l0.2,0l0.5,0.3l0.4-0.3l0-0.2l0.3-0.6l-0.4-0.1l-0.1-0.6l-0.5,0l0-0.6
	l-0.2-0.1l0-0.1l-0.4-0.1l-0.1-0.1l-0.1,0l0,0.1l-0.4-0.1l0,0.2H50l-0.3-0.1l0.1-0.2l-0.1-0.1l-0.3-0.1l-0.1,0.3h-0.1l-0.2,0.2v0.5
	l-0.3,0l-0.4,0.3l-1.6-1.9l0.1-0.2l-0.2,0l0.1-0.3l0.3-0.1l0.5,0l-0.3-0.3h-0.3l-0.6,0.4l0-0.4l-0.1-0.3l-0.9-0.4l-0.2-0.2l-0.8,0.1
	v0.1l-0.2,0.1l-0.4,0l-0.5-0.1l-1.1-0.5l-0.8-0.6l-2.1-1.4l-1.3-1.1h-0.2l-0.1,0.1l-0.2,0l-0.1-0.5l-0.6-0.7l-0.3-0.1l0-0.3
	l-0.4-0.2l-0.2-0.4l-0.2,0l-0.1-0.3l-0.3-0.1L35,342l-0.5,0l-0.5-0.6l-0.6-0.5h-0.2l-0.6-0.6l-0.2,0l0.4-0.5l0.6,0l0.8,1.2l0.2,0.2
	H35l0.5-0.2l0.4,0.3h0.2l0.3,0.3l0.2-0.1l-1.4-1.3l-0.1-0.3l0.5-0.4l0.1-0.1l0-0.1h-0.1l-0.6,0.4l-0.2,0.1l-0.2,0.2l-0.2-0.2l1-0.7
	l0.1-0.2l-0.1-0.1h-0.1l-1,0.7l-0.2-0.4l0.6-0.4l-0.2-0.3l-0.2,0l-0.4,0.4l-0.3,0.1l-0.6-0.6l-0.1-0.3l-0.4-0.5l0.3,0.2l0.4-0.2
	l-0.4-0.4l-0.2,0l-0.3,0.3l-0.2-0.2l-0.9-1.1l-0.2-0.4l-0.2-0.1l-0.5-0.6l-1.3-2.4l0-0.1l0.2,0l1,0.6l0.4,0.8l0.1,0.2l0.2,0.1
	l0.3,0.6l-0.3-1.1l2.1-1.2l-0.2-4.8l0,0l-1.7-7.3l0,0l-3.3-3.9l-3.6-1.3l-0.2-0.7l-0.4-0.7l0-0.2l-0.2-0.5l-0.6-1.1l-1.4-3.6
	l-0.2-0.1l-0.6,0.2l-0.9,0l-0.2-0.3l-0.1-0.4l0.2,0.2l0.1,0.3l0.5-0.1l-0.1-0.7l0.5-0.1l0.3-0.2v-0.1l-0.9-2.9l-0.4-0.6l-0.5-1.9
	l0.4-0.1l0.7,0.3l0.3-0.3l0.2-0.2l0.1-0.9l0.4-0.2l0.1-0.2l-0.4,0l0-0.2l0.4,0l0.1-0.2l-0.6,0L20,300l0.2,0.7l-0.2-0.2l-0.2,0.1
	L20,301l-0.1,0.2l-0.7,0.2l0.1-0.2l-0.2-0.6l-0.3,0l-0.1,0.1l0.2,0.7l-0.3,0.1l-0.4-1.4l-0.9-2.2l-0.7-2.1l0.1-0.4l1.1-0.8l-0.1,0
	l-0.2,0.1l-0.9,0.7l-0.2-0.1l0.2-2.1l0-0.8l-0.4-1.5l-0.6-1.2l-0.4-0.6l0-0.3l-0.1-0.1v-0.1l0.3-0.2l0.2,0.1l0.3,0.3h0.2l0-0.4
	l0.2-0.2l0.2-0.5l0-0.3l-0.1-0.1l-0.2,0v-0.1h0.2l0.1-0.1v-0.2l-0.3-0.1h-1.1l-0.7-0.4v-0.8l0.6-0.1l0.2-0.4l-0.4,0.3l-0.5,0.1h-0.1
	v-0.2l0.3-0.1l0.1-0.1l-0.4,0.1l-0.1,0.3l-0.3,0.4l-0.3-0.2l-0.2,0.2l1.6,1.4l0.4,0.8l0.2,0.2l-0.1,0.2l-0.4,0.1l-0.2-0.4l-0.2-0.2
	l-0.3-0.6l-1.6-1.6v-0.4l0.4-0.4h0.2l0.5-0.4l-0.1-0.1l-0.4,0.2l-0.5-0.1l0.2-0.8l0.5-0.3h0.4l0.3-0.2l0.7-0.2h0.5l0.2-0.1l0.5-0.6
	l0.2-0.1V282h-0.2l0.1-0.3l-0.1-0.1l-0.1,0v0.2l-0.1,0l-0.1,0.4l-0.2-0.3l-0.2,0l0.2,0.3l-0.1,0.2l0.2,0.2l-0.8,0.1l-0.7,0.3h-0.1
	l0.1-0.1v-0.1l-0.2-0.8l-0.1-0.1l-0.1,0.6l0.2,0l-0.4,0.1l-0.1,0.2l0.1,0.2l0.2,0.1l-0.3,0.2l0-0.2l-0.2,0l0,0.3l0.1,0.1l-0.3,0.1
	l-0.2,0.2l0.1,0.3l-0.1,0.1l-0.1,0.8l-0.2,0l-1.3-1.2l-1.9-1.5l0.3-0.6l-0.1,0l-0.2,0.3H9.2l0,0.1l-0.1,0l-0.4-0.3l-2.1-1.2
	l-0.1-0.2l-0.4-0.1l-0.2-0.2L5.2,280l-0.5-0.2l0-0.2l0.2-0.2l0.2-0.7l-0.4-0.3L4,278.8L3.7,279H3.5l-0.4-0.5l-0.4-0.6v-0.1l0.1-0.2
	l0.5,0l0.4-0.2V277l-0.4-0.8l0.4-0.2l0-0.3l-0.4,0.2L3,275.2l-1.7,0l0,0.3l-0.1,0.1l-0.6-0.2l0.4-2.3l0-0.9l1.6-1l0.2-0.3l2.4-1.2
	l0.9-0.1h0.4l0.3,0.1l0.9,0.9l0.8,0.2l0-0.2l-0.9-0.2l-0.1-0.6H7l-0.4-0.7l0-0.4l0.2-0.6l-0.2-0.4l0-0.3l-0.1-0.1l0.5-0.7l0.1-0.3
	L7,264l-0.2-0.3H5.5l-0.4-0.2L4.9,263l0.1-0.6H4.9v-0.1l0.5-1.3l0.4-0.6l0.4-1l-0.1-0.1l-0.4,0l-0.4-0.4l0.1,0l0.2,0.3l0.3,0
	l0.2,0.1l0.2-0.3l0-0.5l-0.8,0.1l-0.1-0.1l0.6-0.1l0.2-0.2h0.1l0-0.9l0.2-1.3l0.2,0l-0.1,0.2l0,0.9l0.6,0.1l0.2,0.7l0.4-0.1v-0.4
	l0.1,0v-0.2H8l0.1,0.2l0.2,0.1l0.2,0l0.2-0.2l0.3,0l0.1-0.1l0.5,0.1l0.4-0.2l1.5,0.1l0,0.1h0.1l0-0.1l0.3,0l0.2-0.1l0-0.1l-1,0.1
	l-1.1-0.2l-0.7,0.1l-1.4-0.1l-0.1-0.9l-0.4-0.3l0-0.1l0.2,0.1l0.5-0.1l0.2-0.3v-0.4l0.6-0.4l0.1-0.3h0.3l0.2-0.3l0.2,0l0-0.6H9.4
	l-0.1,0.3H9.2L9.1,253l0.1-0.8l0.4-0.4l0.5-0.1l0.5-0.4v-0.2l-0.3,0l-1.1,0.8H8.6l-0.4-0.3l-0.4-0.8l0.2-1.8l0.1-0.3l0.2-0.1
	l0.1,0.2h0.2l0-0.1l0.2-0.1l1,0.1l0.1-0.6l-0.7,0l0-0.4l0.1-0.1l0.5-1l0.3-1.1l0.1-0.8l0.2,0l0.7,0.5l0.7,0.1l1.3-0.4l0.8,0.6
	l0.5,0.8l0.7,0.8l0.4,0.3l-1.5-2.1L13,245l-1.2,0.1l-0.7-0.3l-0.2-0.2l-0.1-0.3h0.4l0-0.2l-0.2-0.1v-0.4l-0.2,0.2l-0.1,0.2h-0.2
	l0.4-0.5l0.6,0.1l0.1-0.1l0-0.2l-0.2-0.3h-0.2l-0.1,0.2h-0.1l0-0.4l-0.3-0.1v-0.1l1-1.8l-0.2-0.1l-0.3,0.2l-0.7,1l-0.2,0.6l-0.1-0.1
	l0.4-0.8l0.2-0.2l0.5-0.9l0.2-0.8l0.5-0.4l0.3,0l0-0.1l0-0.1h-0.8v-0.1l0.7,0l0.5-0.1l-0.1,0.3l-0.2,0l0.1,0.2l-0.1,0.1l0,0.2
	l-0.8,0.7H12l0.1,0.2l0.2,0l0.2-0.3l0.1-0.3h0.1l0,0.2h0.1l0.1,0.2h0.4l-0.1,0.4l0.1,0l0,0.4l0.2-0.1l0.1-0.3l-0.1-0.1l0.2-0.2
	l0.5,0.4l0.2,0.6l1.1,0.5l0.2,0.5l0.7-0.1l0.5,0.1l0.2-0.2h0.1l0.1-0.4l0.4-0.2l0.1,0.3l-0.2-0.1l0,0.2l-0.3,0.2l-0.4,0.5l0.1,0
	l0.1,0.3l0.4,0.1v-0.1l-0.2-0.1l-0.1-0.1l0-0.1l0.2-0.1l0.2,0.7h0.1v-0.2l0.2,0.1l0,0.2l-0.3,0.1l-0.1,0.2l0.1,0.6l0.2,0.2l0.6-0.2
	l0.2-0.2l0-0.2l-0.4-0.4l-0.2-0.5l0.3-0.2H18l0-0.1l0.4-0.2l0.1-0.8l-0.3-0.6H18l-0.2,0.3l-0.4,0l-0.2-0.1V241l0.2-0.2l-0.2-0.5
	l0.2-0.2l-0.4-1l-0.9-0.2l-0.2-0.2h-0.2l-0.3,0.2l-0.7,0l-0.1-0.1H14l0-0.2l-0.4-0.1l-0.6,0l-0.2,0.5l-0.9,0l0-1.2h-0.5l-0.1,0.2
	l-0.1-0.1l0.2-0.2l0.6,0h2.6l0.1,0.1l0.5-0.5l0.3-0.5v-0.2l-0.4-1.2l-0.1,0l0-0.1l-0.5,0.1l-0.1,0.5l-0.2,0.1l-0.2-0.7l-0.1-1.4
	l0.1-0.1l0-0.9l0.5-0.3l0.1-0.4l0-0.6l0.3-0.1L15,231v-0.3h-0.1l0,0.1l0-0.1l0.1-0.1l-0.2,0l-0.1-0.2l0.2,0l0.1-0.2h-0.2l0.1-0.2
	l-0.1-0.1l-0.2,0.1l-0.1-0.1l0.1-0.2h0.2l0.4,0.3l0.2,0.3l0.3-0.2l0.1,0.2l0.2,0.1l0.5,0l0.9-0.4l0.2-0.5l-0.1-1.5l0.1-0.2l-0.1,0
	L17,228l0,0.7l-0.1,0.4l-0.1,0.1l-0.1,0.6l-0.2,0l-0.1,0.1h-0.5l-0.5-0.4l-0.4-0.6l-0.6-0.2l-0.4,0.2l-0.1,0.2l-0.2,0l-0.9,0.5h-0.1
	l0-0.3l-0.2,0v0.2l-0.2,0l0,0.1l0.2,0v0.1l-0.3,0.1l-0.2-0.4l0.1-0.3l0.6-0.6l0.5-0.2l0.2,0.1l0.2,0l0.1-0.4l0.2-0.1l0-0.1l0.2-0.1
	l0.1-0.4l-0.3,0.2l0.2-0.5l-0.4,0.4l-0.1,0.3l-0.2,0l0-0.1l-0.2-0.1l0-0.4l0.1-0.1l0-0.3l0.4-0.3l0.3-0.6l0.5-0.4l0.1-0.5l-0.2-0.1
	v-0.2l0.3-0.1l0.8,0.1h0.5v-0.1l-1-0.2l-0.9,0l-2.1,0.7l-0.9,0l-0.2-0.1l-0.4-0.4l-0.2-0.4l-0.1-0.7l0-1.8l0.1-0.2l0.2-0.3l0.3-0.1
	l0.4,0l1.2,0.3h0.4l0.1-0.1l0.4,0l-0.1-0.9l0.4,0l0.2-0.5v-0.2l-0.1-0.1l0-0.2h0.2l0-0.1l-0.6-0.4l-0.3-0.4h-0.1v-0.1l-0.3-0.4
	l-0.1-0.6l0.1-0.8l-0.1-0.6l0.3-0.3l0.1-0.5v-0.4l-0.3-0.2l0-0.3l0.1-1.8l0.1-0.3l0.3-0.1l0.1-0.2l0.4-0.1l0.1-0.2l-0.2,0l0.2-0.6
	h-0.2l-0.2,0.6h-0.5l0.1-1.6l-0.1-0.3l0.1-0.9l-0.2-0.4l0.3-2l0.2,0l0.3-0.6l0.2-0.1l0.3-0.6l0.1-0.6l0.2-0.4l0.2-0.9l0.4-0.5
	l0.6-1.5l0.6-0.6l0.5-0.9l0.7-0.7l0.3,0l0.4,0.4L18,199h0.2v-0.4l-1.3-0.3h-0.2l-0.1,0.1h-0.1l-0.4-0.3l0.2-1.9l-0.5-0.1v0.3h-0.1
	l-0.1-0.3h-0.2v-0.1h0.2l-0.1-0.2l-0.2-0.1l0.1-0.1l-0.1-0.4l0.4-0.7l0.2,0l0,0.2l-0.1,0l-0.1-0.1l-0.3,0.4l-0.1,0.3l0.4,0.1v0.4
	l0.5,0.1l0.2-1.5l0.1-0.4l0.2-0.1l-0.2-0.3l0-0.2l0.3-0.8l0.7,0v-0.8h-0.4l-0.2-0.4l-0.9,0l-0.6-1.3l-0.2-0.8l0-0.4l0.1,0v0.6
	l0.7,1.7l0.6,0.1l-0.1-0.1h0.1l0.4-0.9l-0.1-0.2l-0.2-0.1l0.1-0.5l0.3-0.2l0.3-0.8l0.4-0.1l0.6-1.2l-0.1-0.2h-0.1l-0.2,0.5l-0.2,0.2
	l-0.2-0.2h-0.2l0.4-0.6l0.2,0.1v0.1H18l0.2-0.4l-0.2-0.2l0-0.2l-0.2-0.1l-0.2,0l-0.3,0.3l-0.1,0v-0.1l-0.4,0l-0.1-0.1l0,0.2
	l-0.3,0.1l-0.4,0.5l-0.3,0.1l0.1-0.2l-0.2,0l-0.7,1.2l0-0.2l0.6-1l0.5-0.3l0.6-0.6l0-0.1l-0.1-0.1l-0.5-0.1l0.1-0.2l1,0.3l0.6-0.6
	l1.6-1l0.2-0.3l0.6-0.5l0.3,0l0.1,0.6l0.5,0.2l0.1,0v-0.1l0.2,0.1l0.1,0.2l0.2,0.1v0.1h-0.1l-0.1,0.1l0.5,0.2l0.4-0.8l0.6,0.2
	l0.2-0.1l0.5-0.1l0-0.2l-0.9-0.3l0.1-0.2l0.4,0l1.5,0.3h0.5l0.4-0.8l0.1-0.8l1.1,0.1l-0.4,0.1l-0.1,0.3l0.1,0.1l0.5,0.2l1.1-0.3
	l0-0.8H28l-0.1-0.3l-0.1,0l0-0.2l-0.5-0.2l-0.8-0.6l0-0.2l0.3-0.2v-0.3l-0.6-0.3l-0.4-0.1l-0.2-0.2h-0.1l0.1-0.4l0.3-0.1l0.3,0.2
	h0.2l0.4-1.2l0.3,0.4l0.2-0.3l0.2-0.1l0.5,0l0.4,0.2l0.5-0.6l0.7-0.4v-0.2l0.1-0.1l0.1-0.5l0.7-0.9l0.3-1.1l0.9-1.3l0-0.3l0.6-1.2
	l0.4-1h0.1l0.4-0.9l0-0.1l-1.4-0.2l-0.2-0.1l-0.1-0.2l1.7-2.9l0.3-0.4h0.2l-0.1-0.5l0.8-2.2l0.3-0.2l1.5,0l0.1,0.1l0.2-0.1l-0.1-0.4
	l0.2-1.2l0.5-0.7l0.6-1.4l1.1-1.4l0-0.4l0.2-0.5l0.3,0l0.1-0.2h0.2l2.6-1.5l0.4,0l0.1,0.1l0,0.2l-0.1,0.1l0,0.2l0.1,0.6l0.1,0
	l-0.1-0.4l0.1-0.9l0.4-0.2l-0.1-0.7l0.2-0.3v-0.2l0.4-0.7l0.3,0.1l0.2-0.1v-0.2l0.4-1l0.2-0.2l0-0.3l-0.4-0.2l-0.1-0.4l0.8-0.4
	l0.2-0.3l-0.5,0.4l-0.4-0.1l-0.2,0l-0.1,0.3l-0.2,0.2l-0.4,0l-0.4-0.2l-0.1-0.2l0.1-0.6l0.6,0l0.7-0.8l0.1-0.2l-0.1-0.1l-0.1,0.4
	l-0.2,0.1l-0.2,0.3l-0.3,0.1h-0.7l-0.2,0.2l-0.1,0.3l0.2,0.1l-0.1,0.2l-2,0.1l-0.4-0.2l0-0.4l0.2-0.2l0.2-0.4l0.4-0.3l0.4-0.7l0.2,0
	l0.2-0.4l0.3-0.2v-0.3H42l0-0.2l0.7-0.9l1.1,0.1l0.1-0.2H44l0.1,0.2l0.2-0.1l0-0.2l0.2-0.5l0-0.3l0.7-0.9l-0.5-0.5l1.3-1.6h0.5
	l0.1-0.1l0.3,0.1l0.7,0l0.2-0.1l0.4,0.1l0.6-0.2l0.2,0.1l0,0.4l-0.9,1.1l-0.3,0.2l-0.5,0.8l-0.4,0.5l-0.1,1l0.2,0l0.1-1h0.1l0.2-0.3
	l0.4-0.6l0.1,0l0.4-0.6l0.8-1.2l0.2-0.1v-0.3l0.2-0.1v-0.1l0.4,0l-0.1-0.3l0.2-0.1l-0.3-0.2l-0.2,0l0-0.2l0.8-1.1h0.2l0.2-0.4
	l0.2-0.1l0-0.2h0.1l0.4-0.4l0.2-0.4l0-0.4l0.2-0.3l0.1,0l0.1,0.1l0.5,0.2l0.3,0.2l0.3-0.3l0.1-0.6H53v-0.1l-0.2,0l-0.2-0.2l-0.3-0.2
	h-0.1l-0.4-0.4l-0.2,0.1l-0.2-0.1V136h-0.3l-0.2-0.2l-0.2,0v-0.1l-0.4,0l-0.1-0.2l-0.2,0l0-0.1l-0.8-0.3l0-0.1l0.2,0l0.8,0.3
	l0.4-1.5l0.2-0.4l0.4-1.2l0.2,0l0.1,0.1l0.3,0l0.1-0.5l0.1,0l0.4-1l0.1-0.6l0-0.1l-0.2-0.1l0-0.1h0.2l0.1-0.2l0.5-1.4l0.1,0l0.1,0.1
	l0.2,0l0.1,0.1l0.2,0l0.9-1.9h0.1l0.1,0.2l0.2,0l0.1,0.4l-0.4,0.3v0.3l-0.2,0.4v0.7l-0.2,0.3l-0.2,0.5l-0.2,0.3l-0.4,0.9l-0.2,0V131
	l-0.3-0.1l-0.1-0.2h-0.4l-0.1,0.4l-0.1,0.1l-0.2,0.6l-0.1,0.1l-0.2,0.8l-0.6,1.5l0.4,0.2l0.2-0.1v-0.4l0.2-0.1l0.2-0.7l0.4-0.8
	l0.5,0.2l0.2,0.4v0.2l0.2,0.1l0.1,0.3H54l0.2-0.7l-0.2-0.2l-0.2-0.6l0.2-0.3l0.1-0.4l0.2-0.3l0-0.1l0.5-1.1l0-0.3l0.1-0.1l0-0.2
	l0.1,0l0.2-0.4v-0.3l0.2-0.1l0.1-0.6l0.6,0.2l0.2,0.3v0.1l-0.2,0.1l-0.3,0.4l0.1,0.5l-0.2,0.3l0.1,0.1h0.2l0.6-0.7l-0.1-0.4l0.2-0.5
	l0-0.4l-0.4-0.4l0.2-0.2l0.5-0.3h0.2v0.2l0.1,0l0.5-0.1l0.2-0.3v-0.3h-0.2l-0.2,0.2l-0.5,0l-0.1,0.1l-0.3-0.1l-0.2,0.2l-0.7-0.1
	l-0.2-0.2l0-0.4l0.6,0l0.4-0.1l0-0.1l-0.4,0.1l-0.2-0.1h-0.2v-0.1l0.2-0.5l0.1,0l0.5-1.2l0.2-0.4l0.4,0.2l0.2,0.3l0.2-0.1l0.1-0.2
	l0.7,0.4l0.5,0.1l0,0.6l0.1,0l0.1-0.7l0.1-0.2l0.2,0l0.1-0.3l-0.1-0.5l0.2-0.6l-0.1-0.5l0.2-0.3l-0.2-0.1l-0.1-0.3l0.1-0.2l0.1-0.5
	l0.2-0.3l0.1,0.2l0.2-0.1l0.2-0.5l0.2-0.1l0.1-0.6l0.4-0.3l0.4-0.5l0.4-0.2l0.4-0.4l0.2-0.6l0.4-0.4v-0.3l-0.2-0.1l0.1-0.2l-0.1-0.2
	l0.2-0.1l0.3-0.5l0.1-0.4l-0.1-0.1l0.2-0.4l0.5-0.8l0-0.5l0.2-0.5l-0.1-0.2l0-0.2l0.2,0.1l0.2-0.1l0-0.3h-0.2l0.1-0.2l0.4-0.6
	L65,111l0-0.1l0.2-0.2l0.4-0.4h0.1l0.1-0.2l0.2-0.1l0.1-0.3l0.4-0.7h0.4l0-0.2l0.4-0.6l0-0.3l0.2-0.2v-0.3l0.3-0.1l0.4-0.4l0.6-0.1
	l0.1-0.3h0.3l0.3-0.4l0.4-0.2v-0.1l0.2-0.1l0.2-0.3l0.1-0.5l0.2,0l0.1-0.2l0.2,0l0,0.3l0.4,0v-0.3l0.2-0.2l0.1-0.3l-0.2-0.1
	l-0.3,0.4V104l0.2-0.2l0-0.1l0.2-0.1l0.2,0.1l0.2-0.3l0.5-0.4l0.1-0.4l0.2-0.2l-0.1-0.4l0.1-0.1l0.4,0l0.1-0.1v-0.2l-0.2-0.4
	l0.5-0.6l0.1,0V100l0.2-0.1l0.2-0.6L74,99l0-0.2l0.2-0.2v-0.2l0.5-0.8l0.2-0.1l0.2-0.6l0.5-1.3l-0.1-0.2l0.2-0.2l0.2-0.5l0.1-0.6
	l0.6-1.4l0.1-0.1l0.1,0v-0.2l0.2-0.3l0.5-1.3l0.1-1l0.3-0.5l0.4-1.1l0.9-1.3l0.4-0.3l0.7,0l0.2-0.3l0.1,0h0.2l0.2,0.2l0.4,0.2
	l0.2,0.2h0.2l0.2-0.1l0.1-0.2h0.2l0.4-0.2l0.1,0l0.2-0.2l0.1,0.1l0.2,0l0.5,0.2l0.4,0.3v0.1l0.4,0.2l0.6,0l0.2-0.1l0-0.1h0.4
	l0.1-0.1l-0.8,0l0-0.1l-0.2,0l-0.4-0.3l-0.8-1l-0.2-0.1l-0.3,0L83,84.7l-0.4,0.3l0-0.2l0.2-0.4l0.6-0.9l0-0.9l0.8-0.9l0.4-0.2
	l-0.2-0.2l0-0.1h0.3l0-0.1l0.3-0.1l0.7-1.1l1.6-0.1l1.1-0.2l0.3-0.2l0.4,0.1l0.2-0.2l0.9,0.1l0.2-0.1h0.7l-0.1-0.5l0.1-0.6l0.8-0.6
	l0.9-1l0.8-0.6l0.2-0.2l0.1-0.6l0.4,0.1l-0.1-0.4l0.1-0.1l0.2-0.4l0.1-0.6l-0.1-0.3l0.2-0.6l0-0.3l0.2-0.3l0.3-0.1l0.4-0.5l0.8-0.7
	l0.6-0.3l0.2-0.2l0.3,0l0.8-0.3l0.9-0.7l0.3-0.8l0-1.3l0.1-0.1l0.6,0l0.2-0.6l0.1-1.1l0.1-0.1v-0.3l-0.2-0.3l0.1,0v-0.4L101,64
	l0-0.3l0.1,0l-0.1-0.1l0-1.1l-0.2-0.4l0.3,0l-0.2-0.2l0.1-0.2l-0.1-0.1l-0.7,0.2l-0.1-0.3l-0.2-0.2l-0.1-0.3l0.2-0.7l0.4-0.5l0-0.3
	l0.3-0.5l0.6-0.7l-0.1-0.2l0.1-0.5l-0.1-0.1V57l0.2-0.1l0.2,0.3h0.1l0.1-0.3l-0.1-0.2l0.2,0l0-0.2l-0.2-0.1l-0.2,0.1v-0.2l0.2-0.2
	l0.5,0.1l0.2,0.1v0.2l0.2,0.2l0,0.4l0.1,0.1l0.3,0l-0.1-0.5l0.2-0.1l0.2,0.3l0.1,0.4l0.8,0.3l0.4,0.3l0.1,0l0-0.1l-0.8-0.4l-0.3-0.3
	l0.1-0.5l-0.3-0.2l-0.1-0.3l0.1-0.1l0.4,0.2l0.2,0l0.1-0.4l0.3-0.2l0.4-0.1l0.7,0.1l0-0.1l-0.8-0.2l-1,0.2l0.1-0.1l-0.2-0.1l0.1-0.1
	l0.2-0.6l0.4-0.3l0.3-0.7l0.1-0.1l0.2-0.6l0.2-0.3v-0.2l0.2-0.3L105,52l0.1-0.1l0.2-0.6l0.5-0.4l0-0.2l0.2-0.2l0.5-0.9l0.2,0
	l-0.2-0.5l-0.1-0.1l0.3-1.1l0.3-0.3l0.4-0.7l0.4-0.3l0.4-0.8l0.5-0.2l0-0.3l0.1-0.2l-0.1-0.4l0.2-0.4l0.9-0.5l0.4-0.5l0.5-1l0.7-0.5
	l0.3-0.4l0.3-1l0-0.9l-0.2-0.4l0.5-0.5v-0.2l0.4-1.1l0.4-0.4l0.7-1l0.2-0.2l-0.2,0l-0.4,0.4V36l0.4-0.7l0.7-0.5v-0.2l0.5-0.4
	l0.6-0.8l0.5-0.2l0.3-0.3l0.6-0.3l0.8-0.1l0.6-0.2L119,32l0.7-0.3l0.2-0.2l0.3-0.1l0.1-0.3l0.7-0.4l0.1-0.3l0.3-0.1l0.1-0.2l0.6-0.4
	l0.7-0.1l0.7-0.4l0.4,0.1l0.2-0.2l0.7,0l0.1-0.2l0.8-0.1l0-0.1l0.5-0.2l0.2,0l0.2-0.2l0.8-0.1l0.2,0.1l0.2-0.2l0.9-0.2l0.6-0.4
	l0.4-0.1l0.3,0l0.7-0.8l0.4-0.1l0.3-0.2l0.4,0l0.9-0.7l1-0.6l0.1-0.2h0.2l0.1-0.2l0.2,0l0.2-0.2l1.1-0.3l0.4,0l0.1,0.1l0.2-0.1
	l0.2,0l0.3-0.4h0.2l0.1,0.2l0.2,0l0.1,0.1l0.3,0l0.2-0.3v-0.1l-0.4,0v-0.1l0.2-0.2l0.9,0.1l0-0.3l0.4,0.1l0.7-0.2l0.7,0.2l0.1,0.2
	l0,0.2l0.3,0.1l0.2-0.1l0.4,0.1l0.3-0.1l0.2,0.1l1.1,0l0.4-0.2l0.4-0.3l0.1,0l0.2-0.3l0.3,0l0.3,0.2l0-0.5l0.6,0l0.1,0.5h0.9
	l0.1,0.1l0.4-0.3l0.4-0.1l0.5,0l0.3-0.2l0.6-0.1l0.2-0.1l1-0.3l0.2-0.2l0.4,0l0.3-0.3l0.1,0.1l0.5-0.3l0.2,0l0.5-0.3l0.2,0l0.2-0.1
	l0.1-0.3l0.6-0.1l0.9-0.4l0.2,0l0.1-0.2l0.1,0l-0.2-0.7l-0.4-0.5l0.1,0l0.2,0.3l0.2,0.1l0.2-0.2l0.4-0.2l0.1-0.4l0.2-0.1l0.1-0.2
	l-0.7-0.6l-0.1-0.2L156,18l0.4-0.2l0.1-0.2l0.5-0.5l0.2,0l0.1-0.1l0.2-0.1l0.4,0.1l0.1-0.9l-0.1,0l-0.2-0.5l-0.8-0.2l-0.6,0
	l-0.1-0.1l0.4-0.5l0.2,0l0.7-0.2v-0.1l0.4-0.3v-0.2l-0.4-0.2l0.4-0.9l0.2-0.1l0.2,0l0.1-0.2l0.2-0.1l0.2-0.3l0.2,0l0.2-0.4l0.5-0.7
	L160,11l0.3-0.4l0.1-0.5l-0.1-0.3l0-0.2l0.1-0.2h0.3l0.2-0.1V9.2h0.1l0-0.2l-0.2-0.2l0-0.2l0.5-0.7l0.1-0.2l-0.1-0.2l0.2-0.5
	l0.3-0.4l0.4-0.1l0.4,0.5l0.6,0l0.1-0.2l0.3-0.1l0.6-0.5l0.2-0.5l0.1,0V5.5l0.3-0.2l0-0.2h-0.1l0.1-0.3l0.3-0.3l0.2,0l0.1-0.2h0.4
	l0.1-0.1l0.3-0.2l0.2,0l0.4-0.2l0.2-0.2l0.3,0l0.1-0.2l0.4,0.1l0.2-0.3l0.3,0V2.9l0.3-0.1l0-0.2l-0.1,0V2.2L168,1.9l0.1-0.2l0.2-0.1
	l0.2,0.2l0.1,0.5l0.3,0.1l0.2,0.2l0.4-0.1l0.1-0.3l0.4,0l0.2,0.2h0.1l0.1-0.2l0.4-0.1l0.1-0.2l0.1,0.1l0.2-0.1l0.2-0.5l-0.2-0.1
	L170.8,1l0.4-0.5h0.1L171.3,0.6L171.3,0.6z"/>
</svg>