<?xml version="1.0" standalone="no"?>
<!DOCTYPE svg PUBLIC "-//W3C//DTD SVG 20010904//EN"
 "http://www.w3.org/TR/2001/REC-SVG-20010904/DTD/svg10.dtd">
<svg version="1.0" xmlns="http://www.w3.org/2000/svg"
 width="500.000000pt" height="500.000000pt" viewBox="0 0 500.000000 500.000000"
 preserveAspectRatio="xMidYMid meet">

<g transform="translate(0.000000,500.000000) scale(0.100000,-0.100000)"
fill="#000000" stroke="none">
<path d="M2811 4107 c-19 -6 -48 -29 -65 -50 -42 -52 -49 -148 -16 -225 12
-28 28 -57 36 -63 19 -16 18 -9 -11 53 -76 162 32 311 173 239 33 -17 108 -90
242 -235 43 -48 91 -76 127 -76 13 0 10 5 -12 19 -35 22 -66 55 -160 171 -38
47 -79 93 -90 103 -72 62 -160 88 -224 64z"/>
<path d="M3292 3940 c46 -25 81 -70 104 -137 22 -61 38 -70 28 -15 -15 85 -88
172 -142 172 -26 -1 -26 -1 10 -20z"/>
<path d="M3117 3732 c-43 -48 6 -112 86 -112 19 0 60 9 92 20 73 25 102 25
143 0 37 -23 54 -57 40 -82 -11 -23 -80 -58 -111 -58 -13 0 -50 9 -82 20 -76
26 -111 25 -160 -5 -45 -27 -41 -31 16 -13 36 10 45 8 111 -23 93 -42 151 -44
225 -6 53 28 83 66 83 107 0 56 -73 120 -137 120 -16 0 -69 -11 -118 -25 -109
-30 -139 -31 -165 -5 -25 25 -25 34 2 60 16 15 18 20 6 20 -8 0 -22 -8 -31
-18z"/>
<path d="M2817 3697 c7 -62 -24 -161 -85 -267 -110 -192 -104 -177 -87 -214 9
-19 31 -42 50 -52 29 -16 32 -19 18 -30 -15 -10 -14 -13 6 -23 29 -16 64 -5
56 18 -4 15 8 19 95 29 107 14 118 12 159 -32 28 -30 68 -34 78 -9 4 9 1 19
-5 21 -7 2 -31 19 -53 38 -23 19 -52 37 -66 40 -14 4 -74 -1 -133 -11 -115
-18 -139 -16 -170 17 -19 21 -19 21 17 61 19 22 59 88 87 146 50 104 51 108
51 198 0 56 -5 97 -11 103 -9 9 -10 0 -7 -33z"/>
<path d="M3211 3456 c-38 -46 -74 -243 -51 -285 20 -39 37 -8 44 85 3 47 15
111 25 142 11 31 17 60 15 64 -8 12 -20 10 -33 -6z"/>
<path d="M1935 3425 c28 -73 28 -94 1 -198 -42 -165 -34 -282 24 -332 l23 -20
-8 20 c-28 70 -34 96 -35 141 0 28 5 76 11 105 24 119 27 173 12 229 -8 30
-19 60 -25 65 -8 7 -9 4 -3 -10z"/>
<path d="M1879 3294 c-4 -36 -18 -81 -33 -110 -28 -53 -33 -104 -14 -165 18
-62 28 -46 28 45 0 53 6 97 15 121 11 24 15 60 13 103 l-3 67 -6 -61z"/>
<path d="M2021 3196 c-37 -39 -38 -99 -6 -176 15 -36 31 -76 36 -90 l7 -25 1
27 c1 15 -8 50 -19 78 -25 64 -25 116 0 158 33 55 22 71 -19 28z"/>
<path d="M2887 3123 c-16 -15 -4 -30 38 -51 25 -12 52 -22 60 -22 22 0 18 28
-4 35 -10 3 -26 14 -36 25 -18 20 -46 26 -58 13z"/>
<path d="M3141 3051 c-11 -7 -9 -10 10 -13 21 -3 24 -8 23 -47 l-1 -44 19 22
c23 29 23 53 0 74 -21 19 -31 21 -51 8z"/>
<path d="M2568 2854 l-33 -36 -17 22 c-30 37 -53 -4 -28 -51 18 -33 55 -23 97
26 20 25 42 45 49 45 6 0 16 -12 23 -26 13 -30 26 -26 16 5 -18 59 -62 65
-107 15z"/>
<path d="M1910 2862 c-31 -25 -21 -69 17 -78 20 -5 31 -2 45 16 23 28 23 35
-2 60 -25 25 -32 25 -60 2z"/>
<path d="M2723 2819 c-18 -5 -33 -14 -33 -20 0 -6 7 -6 19 1 40 21 65 12 95
-35 59 -94 153 -130 224 -86 38 24 45 57 10 44 -45 -16 -95 -8 -130 20 -92 75
-131 91 -185 76z"/>
<path d="M3365 2808 c-81 -41 -180 -160 -234 -280 -16 -34 -50 -133 -76 -218
-66 -218 -101 -289 -190 -376 -126 -125 -257 -168 -390 -129 -164 47 -306 156
-449 342 -26 35 -50 63 -53 63 -25 0 148 -230 233 -309 113 -105 257 -171 375
-171 99 0 228 60 328 154 69 64 126 167 170 308 136 431 184 528 284 577 51
25 97 27 137 6 32 -17 58 -50 113 -144 l38 -66 -7 45 c-12 82 -72 172 -136
206 -38 20 -96 17 -143 -8z"/>
<path d="M1868 2740 c-70 -12 -166 -46 -225 -80 -51 -29 -125 -110 -138 -150
-8 -24 -14 -24 -85 -5 -54 14 -77 12 -50 -5 23 -14 143 -40 260 -56 58 -7 189
-14 295 -14 l189 0 -39 -41 c-67 -69 -127 -84 -217 -53 -25 8 -64 31 -87 50
-51 44 -54 31 -3 -18 114 -110 262 -104 334 13 17 27 33 49 35 49 41 0 284 46
302 57 49 31 6 34 -150 11 -134 -20 -193 -23 -456 -23 -166 0 -304 3 -308 7
-12 11 33 74 86 122 56 51 156 89 281 106 149 22 253 -7 402 -110 76 -52 96
-60 96 -35 0 19 -89 85 -167 124 -114 57 -225 73 -355 51z"/>
<path d="M2645 2573 c-14 -21 -25 -50 -25 -66 0 -35 29 -47 112 -47 51 0 68
-5 118 -36 69 -43 85 -40 135 20 36 45 44 76 23 94 -7 5 -53 12 -103 14 -76 4
-96 8 -132 31 -61 39 -96 36 -128 -10z"/>
<path d="M2730 2333 c-62 -22 -46 -103 20 -103 50 0 69 66 28 94 -24 17 -25
17 -48 9z"/>
<path d="M2610 2121 c-8 -17 -7 -24 10 -41 28 -28 63 -11 58 28 -4 35 -51 44
-68 13z"/>
<path d="M2513 1994 c-3 -8 -1 -20 5 -26 15 -15 43 8 35 28 -7 19 -32 18 -40
-2z"/>
<path d="M1360 1536 c-61 -18 -122 -50 -165 -88 -29 -25 -35 -37 -33 -62 4
-45 48 -48 106 -6 57 43 53 56 -9 25 -28 -15 -56 -24 -62 -22 -19 6 62 59 131
84 85 32 231 44 250 20 11 -12 7 -19 -20 -43 -47 -39 -198 -105 -198 -86 0 4
21 29 45 55 72 76 58 92 -24 27 -69 -55 -173 -186 -169 -214 5 -35 24 -24 73
43 l48 65 73 -79 73 -78 53 7 c48 7 139 44 163 67 6 6 14 -2 21 -23 13 -41 42
-47 88 -19 34 21 34 21 39 1 7 -27 26 -25 67 5 34 25 35 25 42 5 10 -27 28
-25 76 10 l41 29 3 -37 c4 -52 34 -54 98 -8 28 20 52 36 54 36 3 0 6 -10 8
-21 6 -39 34 -47 80 -21 41 22 41 22 55 2 20 -29 45 -25 97 15 26 19 52 35 59
35 7 0 22 7 33 15 34 26 37 16 4 -21 -22 -25 -28 -40 -21 -47 7 -7 27 3 66 32
30 23 55 37 55 32 0 -5 -4 -13 -10 -16 -17 -10 -11 -54 8 -64 24 -13 60 6 147
78 58 49 77 71 59 71 -3 0 -31 -20 -62 -43 -61 -47 -94 -67 -111 -67 -19 0
-12 17 29 69 22 28 40 53 40 56 0 14 -36 2 -70 -25 -46 -36 -56 -38 -34 -5 29
44 5 44 -62 -1 -37 -25 -68 -43 -70 -41 -2 2 1 18 7 36 15 41 7 59 -25 56 -32
-4 -91 -40 -111 -67 -17 -25 -106 -79 -117 -72 -11 7 8 41 45 84 l31 35 -24 3
c-14 3 -30 -4 -39 -16 -15 -18 -112 -86 -158 -111 -46 -24 -25 25 40 93 l62
66 75 7 c78 6 100 15 100 40 0 11 -6 13 -22 8 -26 -9 -87 -9 -95 -1 -3 3 0 12
7 21 10 13 9 15 -8 15 -11 0 -29 -11 -39 -23 -15 -20 -32 -25 -92 -31 -40 -4
-82 -11 -94 -15 -19 -7 -18 -9 13 -19 18 -7 47 -12 63 -12 l30 0 -24 -26 c-28
-31 -140 -106 -147 -99 -3 2 12 25 33 51 37 44 38 47 20 60 -10 8 -25 14 -32
14 -20 0 -71 -28 -128 -70 -60 -45 -125 -81 -136 -75 -18 12 7 47 56 80 63 41
161 129 176 157 20 37 -5 45 -58 19 -68 -33 -116 -74 -170 -143 -35 -47 -60
-67 -107 -89 -68 -32 -96 -36 -96 -14 0 16 5 19 52 29 60 13 113 87 73 102
-45 17 -136 -52 -160 -122 l-13 -39 -46 46 c-25 26 -46 51 -46 56 0 5 24 19
54 32 29 12 72 38 95 58 35 29 42 41 39 66 -5 48 -45 71 -131 74 -40 1 -92 -4
-117 -11z m530 -131 c-30 -30 -59 -55 -64 -55 -6 0 14 25 44 55 30 30 59 55
64 55 6 0 -14 -25 -44 -55z m-245 -80 c-39 -32 -58 -32 -22 0 15 14 33 25 40
25 7 -1 -1 -12 -18 -25z m335 -22 c-53 -46 -70 -57 -70 -44 0 14 81 81 99 81
8 0 -5 -17 -29 -37z m530 28 c0 -5 -7 -14 -15 -21 -12 -10 -15 -10 -15 2 0 8
3 18 7 21 9 10 23 9 23 -2z m-56 -68 c-5 -9 -20 -23 -32 -31 -19 -13 -22 -13
-22 0 0 9 10 27 21 42 16 20 25 24 33 16 7 -7 7 -16 0 -27z"/>
<path d="M3435 1488 c-20 -17 -63 -64 -96 -105 -50 -61 -100 -103 -122 -103
-3 0 0 18 5 40 22 85 -6 90 -93 18 -67 -56 -66 -81 1 -28 23 18 44 30 47 26
10 -9 -20 -78 -39 -90 -13 -8 -23 -8 -39 2 -29 18 -37 6 -18 -26 19 -34 52
-33 108 2 49 31 55 32 41 7 -23 -44 0 -42 48 4 43 40 56 44 47 13 -8 -25 -8
-26 -6 -45 2 -22 27 -15 81 22 29 19 54 35 56 35 2 0 4 -13 4 -29 0 -48 42
-51 105 -7 l30 21 -15 -22 c-8 -11 -41 -53 -74 -92 -36 -44 -56 -77 -52 -86 9
-24 20 -18 54 28 17 23 52 64 77 91 35 37 49 46 57 38 42 -42 205 59 184 113
-13 35 -52 28 -126 -22 -14 -9 4 13 40 50 50 53 62 69 52 79 -10 10 -23 1 -65
-39 -56 -54 -116 -97 -184 -132 -55 -27 -57 -11 -8 53 19 26 35 48 35 51 0 12
-39 3 -51 -12 -16 -19 -128 -93 -141 -93 -14 0 -9 16 18 55 32 48 19 63 -26
30 -18 -14 -36 -22 -39 -20 -5 5 111 129 157 168 12 10 22 23 22 28 0 20 -41
7 -75 -23z m355 -186 c0 -12 -80 -68 -109 -77 -35 -11 -18 10 42 50 53 36 67
41 67 27z"/>
<path d="M3598 1439 c-21 -12 -24 -39 -5 -39 18 0 49 34 40 43 -8 9 -15 8 -35
-4z"/>
<path d="M2890 1342 c-5 -2 -10 -10 -10 -18 0 -11 17 -14 75 -14 71 0 91 9 63
27 -13 8 -108 11 -128 5z"/>
<path d="M1960 1010 c0 -40 4 -70 10 -70 6 0 10 9 10 20 0 14 7 20 23 20 12 0
28 -9 35 -20 7 -11 17 -20 23 -20 7 0 6 8 -4 23 -12 19 -12 24 -1 35 36 34 3
82 -57 82 l-39 0 0 -70z m85 20 c0 -21 -5 -26 -32 -28 -31 -3 -33 -1 -33 28 0
29 2 31 33 28 27 -2 32 -7 32 -28z"/>
<path d="M2320 1055 c-7 -8 -8 -20 -4 -27 5 -7 10 -24 12 -38 1 -14 5 -31 7
-37 5 -15 45 -18 45 -3 0 6 -7 10 -15 10 -10 0 -15 11 -15 35 0 19 5 35 10 35
16 0 11 14 -9 27 -15 10 -22 9 -31 -2z"/>
<path d="M2992 1050 c-7 -11 -8 -20 -3 -20 6 0 11 -19 13 -42 2 -36 7 -44 26
-46 12 -2 22 1 22 7 0 6 -7 11 -15 11 -10 0 -15 11 -15 35 0 26 4 35 17 35 14
0 14 3 -5 20 -12 11 -23 20 -24 20 -2 0 -9 -9 -16 -20z"/>
<path d="M2110 1030 c-38 -38 -15 -90 40 -90 43 0 46 18 3 22 -55 5 -55 28 1
28 39 0 45 3 39 18 -7 21 -32 42 -50 42 -7 0 -22 -9 -33 -20z m60 -15 c11 -13
7 -15 -25 -15 -32 0 -36 2 -25 15 7 8 18 15 25 15 7 0 18 -7 25 -15z"/>
<path d="M2232 1039 c-33 -13 -24 -41 16 -53 43 -12 41 -26 -4 -26 -21 0 -33
-4 -29 -10 9 -15 61 -12 75 5 16 19 -1 42 -33 47 -28 4 -19 23 11 23 26 -1 29
10 6 19 -9 3 -16 6 -17 5 -1 0 -12 -4 -25 -10z"/>
<path d="M2415 1040 c-21 -9 -17 -11 24 -13 32 -2 40 -27 9 -27 -33 0 -51 -14
-46 -36 2 -15 13 -19 46 -20 l42 -2 0 38 c0 58 -28 80 -75 60z m55 -64 c0 -18
-30 -30 -43 -17 -5 5 -6 14 -3 20 10 16 46 13 46 -3z"/>
<path d="M2525 1036 c-4 -10 -4 -35 1 -55 8 -33 12 -36 50 -39 37 -3 42 0 45
20 6 32 -6 97 -14 78 -3 -8 -6 -22 -5 -30 3 -39 -3 -50 -27 -50 -25 0 -29 8
-38 70 -3 22 -4 23 -12 6z"/>
<path d="M2660 993 c0 -29 5 -53 10 -53 6 0 10 15 10 34 0 25 7 39 22 50 12 9
20 16 18 17 -57 9 -60 7 -60 -48z"/>
<path d="M2753 1043 c-24 -9 -13 -23 13 -17 17 4 29 2 35 -7 6 -11 1 -15 -24
-19 -26 -4 -32 -10 -32 -30 0 -23 4 -25 43 -26 l42 -2 0 38 c0 55 -32 82 -77
63z m57 -63 c0 -15 -38 -32 -45 -20 -3 5 -3 15 0 20 8 13 45 13 45 0z"/>
<path d="M2860 993 c0 -29 5 -53 10 -53 6 0 10 15 10 34 0 37 21 62 45 52 10
-3 15 -19 15 -46 0 -22 5 -40 10 -40 15 0 12 87 -2 97 -7 4 -30 8 -50 8 l-38
1 0 -53z"/>
</g>
</svg>
