<?xml version="1.0" encoding="UTF-8"?>
<svg id="_圖層_2" data-name="圖層 2" xmlns="http://www.w3.org/2000/svg" viewBox="0 0 24 24">
  <g id="_圖層_1-2" data-name="圖層 1">
    <g fill="currentColor">
      <path
        d="m14.85.07c-.17.05-.43.22-.59.38-.38.39-.44,1.12-.14,1.7.11.21.25.43.32.48.17.12.16.07-.1-.4-.68-1.22.29-2.35,1.56-1.81.3.13.97.68,2.18,1.78.39.36.82.57,1.14.57.12,0,.09-.04-.11-.14-.32-.17-.59-.42-1.44-1.29-.34-.36-.71-.7-.81-.78-.65-.47-1.44-.67-2.02-.48Z" />
      <path
        d="m19.18,1.33c.41.19.73.53.94,1.04.2.46.34.53.25.11-.14-.64-.79-1.3-1.28-1.3q-.23,0,.09.15Z" />
      <path
        d="m17.6,2.9c-.39.36.05.85.77.85.17,0,.54-.07.83-.15.66-.19.92-.19,1.29,0,.33.17.49.43.36.62-.1.17-.72.44-1,.44-.12,0-.45-.07-.74-.15-.68-.2-1-.19-1.44.04-.41.2-.37.23.14.1.32-.08.41-.06,1,.17.84.32,1.36.33,2.03.05.48-.21.75-.5.75-.81,0-.42-.66-.91-1.23-.91-.14,0-.62.08-1.06.19-.98.23-1.25.23-1.49.04s-.23-.26.02-.45c.14-.11.16-.15.05-.15-.07,0-.2.06-.28.14Z" />
      <path
        d="m14.9,3.17c.06.47-.22,1.22-.77,2.02-.99,1.45-.94,1.34-.78,1.62.08.14.28.32.45.39.26.12.29.14.16.23-.14.08-.13.1.05.17.26.12.58.04.5-.14-.04-.11.07-.14.86-.22.96-.11,1.06-.09,1.43.24.25.23.61.26.7.07.04-.07,0-.14-.05-.16-.06-.02-.28-.14-.48-.29-.21-.14-.47-.28-.59-.3-.13-.03-.67,0-1.2.08-1.04.14-1.25.12-1.53-.13q-.17-.16.15-.46c.17-.17.53-.67.78-1.1.45-.79.46-.82.46-1.5,0-.42-.05-.73-.1-.78-.08-.07-.09,0-.06.25Z" />
      <path
        d="m18.45,4.99c-.34.35-.67,1.84-.46,2.15.18.29.33.06.4-.64.03-.36.14-.84.23-1.07.1-.23.15-.45.14-.48-.07-.09-.18-.08-.3.05Z" />
      <path
        d="m6.96,5.22c.25.55.25.71,0,1.5-.38,1.25-.31,2.13.22,2.51l.21.15-.07-.15c-.25-.53-.31-.73-.32-1.07,0-.21.05-.57.1-.79.22-.9.24-1.31.11-1.73-.07-.23-.17-.45-.23-.49-.07-.05-.08-.03-.03.08Z" />
      <path
        d="m6.46,6.21c-.04.27-.16.61-.3.83-.25.4-.3.79-.13,1.25.16.47.25.35.25-.34,0-.4.05-.73.14-.91.1-.18.14-.45.12-.78l-.03-.51-.05.46Z" />
      <path
        d="m7.74,6.95c-.33.29-.34.75-.05,1.33.14.27.28.57.32.68l.06.19v-.2c.02-.11-.06-.38-.16-.59-.23-.48-.23-.88,0-1.19.3-.42.2-.54-.17-.21Z" />
      <path
        d="m15.53,7.5c-.14.11-.04.23.34.39.23.09.47.17.54.17.2,0,.16-.21-.04-.26-.09-.02-.23-.11-.32-.19-.16-.15-.41-.2-.52-.1Z" />
      <path
        d="m17.82,8.05c-.1.05-.08.08.09.1.19.02.22.06.21.36v.33s.16-.17.16-.17c.21-.22.21-.4,0-.56-.19-.14-.28-.16-.46-.06Z" />
      <path
        d="m12.66,9.54l-.3.27-.15-.17c-.27-.28-.48.03-.25.39.16.25.5.17.87-.2.18-.19.38-.34.44-.34.05,0,.14.09.21.2.12.23.23.2.14-.04-.16-.45-.56-.49-.96-.11Z" />
      <path
        d="m6.74,9.48c-.28.19-.19.52.15.59.18.04.28.02.41-.12.21-.21.21-.26-.02-.45s-.29-.19-.54-.02Z" />
      <path
        d="m14.05,9.8c-.16.04-.3.11-.3.15s.06.05.17,0c.36-.16.59-.09.86.26.53.71,1.38.98,2.02.65.34-.18.41-.43.09-.33-.41.12-.86.06-1.17-.15-.83-.57-1.18-.69-1.67-.57Z" />
      <path
        d="m19.83,9.88c-.73.31-1.62,1.21-2.11,2.12-.14.26-.45,1.01-.68,1.65-.59,1.65-.91,2.18-1.71,2.84-1.13.94-2.31,1.27-3.51.97-1.48-.36-2.75-1.18-4.04-2.58-.23-.26-.45-.48-.48-.48-.23,0,1.33,1.74,2.1,2.34,1.02.79,2.31,1.29,3.38,1.29.89,0,2.05-.45,2.95-1.16.62-.48,1.13-1.26,1.53-2.33,1.22-3.26,1.66-3.99,2.56-4.36.46-.19.87-.2,1.23-.05.29.13.52.38,1.02,1.09l.34.5-.06-.34c-.11-.62-.65-1.3-1.22-1.56-.34-.15-.86-.13-1.29.06Z" />
      <path
        d="m6.36,10.4c-.63.09-1.49.35-2.03.6-.46.22-1.13.83-1.24,1.13-.07.18-.13.18-.77.04-.49-.11-.69-.09-.45.04.21.11,1.29.3,2.34.42.52.05,1.7.11,2.66.11h1.7l-.35.31c-.6.52-1.14.63-1.95.4-.23-.06-.58-.23-.78-.38-.46-.33-.49-.23-.03.14,1.03.83,2.36.79,3.01-.1.15-.2.3-.37.32-.37.37,0,2.56-.35,2.72-.43.44-.23.05-.26-1.35-.08-1.21.15-1.74.17-4.1.17-1.49,0-2.74-.02-2.77-.05-.11-.08.3-.56.77-.92.5-.39,1.4-.67,2.53-.8,1.34-.17,2.28.05,3.62.83.68.39.86.45.86.26,0-.14-.8-.64-1.5-.94-1.03-.43-2.03-.55-3.2-.39Z" />
      <path
        d="m13.35,11.66c-.13.16-.23.38-.23.5,0,.26.26.36,1.01.36.46,0,.61.04,1.06.27.62.32.77.3,1.22-.15.32-.34.4-.57.21-.71-.06-.04-.48-.09-.93-.11-.68-.03-.86-.06-1.19-.23-.55-.29-.86-.27-1.15.08Z" />
      <path d="m14.12,13.47c-.56.17-.41.78.18.78.45,0,.62-.5.25-.71-.22-.13-.23-.13-.43-.07Z" />
      <path d="m13.04,15.08c-.07.13-.06.18.09.31.25.21.57.08.52-.21-.04-.26-.46-.33-.61-.1Z" />
      <path d="m12.16,16.03c-.03.06,0,.15.05.2.14.11.39-.06.32-.21-.06-.14-.29-.14-.36.02Z" />
      <path
        d="m1.79,19.5c-.55.14-1.1.38-1.49.67-.26.19-.32.28-.3.47.04.34.43.36.95.05.51-.32.48-.42-.08-.19-.25.11-.5.18-.56.17-.17-.05.56-.45,1.18-.63.77-.24,2.08-.33,2.25-.15.1.09.06.14-.18.32-.42.29-1.78.79-1.78.65,0-.03.19-.22.41-.42.65-.57.52-.7-.22-.2-.62.42-1.56,1.41-1.52,1.62.05.26.22.18.66-.32l.43-.49.66.6.66.59.48-.05c.43-.05,1.25-.33,1.47-.51.05-.05.13.02.19.17.12.31.38.36.79.14q.31-.16.35,0c.06.2.23.19.6-.04.31-.19.32-.19.38-.04.09.2.25.19.68-.08l.37-.22.03.28c.04.39.31.41.88.06.25-.15.47-.27.49-.27.03,0,.05.08.07.16.05.29.31.36.72.16q.37-.17.5-.02c.18.22.41.19.87-.11.23-.14.47-.26.53-.26s.2-.05.3-.11c.31-.2.33-.12.04.16-.2.19-.25.3-.19.36s.24-.02.59-.24c.27-.17.5-.28.5-.24s-.04.1-.09.12c-.15.08-.1.41.07.48.22.1.54-.05,1.32-.59.52-.37.69-.54.53-.54-.03,0-.28.15-.56.32-.55.36-.85.51-1,.51-.17,0-.11-.13.26-.52.2-.21.36-.4.36-.42,0-.11-.32-.02-.63.19-.41.27-.5.29-.31.04.26-.33.05-.33-.56,0-.33.19-.61.32-.63.31s0-.14.06-.27c.14-.31.06-.45-.23-.42-.29.03-.82.3-1,.51-.15.19-.95.6-1.05.54s.07-.31.41-.63l.28-.26-.22-.02c-.13-.02-.27.03-.35.12-.14.14-1.01.65-1.42.84-.41.18-.23-.19.36-.7l.56-.5.68-.05c.7-.05.9-.11.9-.3,0-.08-.05-.1-.2-.06-.23.07-.78.07-.86,0-.03-.02,0-.09.06-.16.09-.1.08-.11-.07-.11-.1,0-.26.08-.35.17-.14.15-.29.19-.83.23-.36.03-.74.08-.85.11-.17.05-.16.07.12.14.16.05.42.09.57.09h.27l-.22.2c-.25.23-1.26.8-1.32.75-.03-.02.11-.19.3-.39.33-.33.34-.36.18-.45-.09-.06-.23-.11-.29-.11-.18,0-.64.21-1.15.53-.54.34-1.13.61-1.22.57-.16-.09.06-.36.5-.6.57-.31,1.45-.97,1.58-1.19.18-.28-.05-.34-.52-.14-.61.25-1.04.56-1.53,1.08-.32.36-.54.51-.96.67-.61.24-.86.27-.86.11,0-.12.05-.14.47-.22.54-.1,1.02-.66.66-.77-.41-.13-1.22.39-1.44.92l-.12.29-.41-.35c-.23-.2-.41-.39-.41-.42s.22-.14.49-.24c.26-.09.65-.29.86-.44.32-.22.38-.31.35-.5-.05-.36-.41-.54-1.18-.56-.36,0-.83.03-1.05.08Zm4.77.99c-.27.23-.53.42-.58.42-.05,0,.13-.19.4-.42s.53-.42.58-.42c.05,0-.13.19-.4.42Zm-2.21.6c-.35.24-.52.24-.2,0,.14-.11.3-.19.36-.19.06,0,0,.09-.16.19Zm3.02.17c-.48.35-.63.43-.63.33,0-.11.73-.61.89-.61.07,0-.05.13-.26.28Zm4.77-.21s-.06.11-.14.16c-.11.08-.14.08-.14-.02,0-.06.03-.14.06-.16.08-.08.21-.07.21.02Zm-.5.51c-.05.07-.18.17-.29.23-.17.1-.2.1-.2,0,0-.07.09-.2.19-.32.14-.15.23-.18.3-.12.06.05.06.12,0,.2Z" />
      <path
        d="m20.46,19.86c-.18.13-.57.48-.86.79-.45.46-.9.78-1.1.78-.03,0,0-.14.05-.3.2-.64-.05-.68-.84-.14-.6.42-.59.61,0,.21.21-.14.4-.23.42-.2.09.07-.18.59-.35.68-.12.06-.21.06-.35-.02-.26-.14-.33-.05-.16.2.17.26.47.25.97-.02.44-.23.5-.24.37-.05-.21.33,0,.32.43-.03.39-.3.5-.33.42-.1-.07.19-.07.2-.05.34.02.17.24.11.73-.17.26-.14.49-.26.5-.26s.04.1.04.22c0,.36.38.39.95.05l.27-.16-.14.17c-.07.08-.37.4-.67.7-.32.33-.5.58-.47.65.08.18.18.14.49-.21.15-.17.47-.48.69-.69.32-.28.44-.35.51-.29.38.32,1.85-.45,1.66-.85-.12-.26-.47-.21-1.13.17-.13.07.04-.1.36-.38.45-.4.56-.52.47-.6s-.21,0-.59.29c-.5.41-1.04.73-1.66,1-.5.2-.51.08-.07-.4.17-.2.32-.36.32-.39,0-.09-.35-.02-.46.09-.14.14-1.15.7-1.27.7-.13,0-.08-.12.16-.42.29-.36.17-.48-.23-.23-.16.11-.32.17-.35.15-.05-.04,1-.97,1.41-1.27.11-.08.2-.17.2-.21,0-.15-.37-.05-.68.17Zm3.2,1.41c0,.09-.72.51-.98.58-.32.08-.16-.08.38-.38.48-.27.6-.31.6-.2Z" />
      <path d="m21.93,20.23c-.19.09-.22.29-.05.29.16,0,.44-.26.36-.32-.07-.07-.14-.06-.32.03Z" />
      <path
        d="m15.56,20.96s-.09.08-.09.14c0,.08.15.11.68.11.64,0,.82-.07.57-.2-.12-.06-.97-.08-1.15-.04Z" />
      <path
        d="m7.19,23.47c0,.3.04.53.09.53s.09-.07.09-.15c0-.11.06-.15.21-.15.11,0,.25.07.32.15s.15.15.21.15c.06,0,.05-.06-.04-.17-.11-.14-.11-.18,0-.26.32-.26.03-.62-.51-.62h-.35v.53Zm.77-.15c0,.16-.05.2-.29.21-.28.02-.3,0-.3-.21s.02-.23.3-.21c.24.02.29.05.29.21Z" />
      <path
        d="m10.43,23.13c-.06.06-.07.15-.04.2.05.05.09.18.11.29,0,.11.05.23.06.28.05.11.41.14.41.02,0-.05-.06-.08-.14-.08-.09,0-.14-.08-.14-.26,0-.14.05-.26.09-.26.14,0,.1-.11-.08-.2-.14-.08-.2-.07-.28.02Z" />
      <path
        d="m16.48,23.17c-.06.08-.07.15-.03.15.05,0,.1.14.12.32.02.27.06.33.23.35.11.02.2,0,.2-.05s-.06-.08-.14-.08c-.09,0-.14-.08-.14-.26,0-.2.04-.26.15-.26.13,0,.13-.02-.05-.15-.11-.08-.21-.15-.22-.15-.02,0-.08.07-.14.15Z" />
      <path
        d="m8.54,23.32c-.34.29-.14.68.36.68.39,0,.41-.14.03-.17-.5-.04-.5-.21,0-.21.35,0,.41-.02.35-.14-.06-.16-.29-.32-.45-.32-.06,0-.2.07-.3.15Zm.54.11c.1.1.06.11-.23.11s-.32-.02-.23-.11c.06-.06.16-.11.23-.11s.16.05.23.11Z" />
      <path
        d="m9.63,23.25c-.3.1-.22.31.14.4.39.09.37.2-.04.2-.19,0-.3.03-.26.08.08.11.55.09.68-.04.14-.14,0-.32-.3-.36-.25-.03-.17-.17.1-.17.23,0,.26-.08.05-.14-.08-.02-.14-.05-.15-.04,0,0-.11.03-.23.08Z" />
      <path
        d="m11.28,23.24c-.19.07-.15.08.22.1.29.02.36.2.08.2-.3,0-.46.11-.41.27.02.11.12.14.41.15l.38.02v-.29c0-.44-.25-.6-.68-.45Zm.5.48c0,.14-.27.23-.39.13-.05-.04-.05-.11-.03-.15.09-.12.41-.1.41.02Z" />
      <path
        d="m12.27,23.27c-.04.08-.04.26,0,.42.07.25.11.27.45.29.33.02.38,0,.41-.15.05-.24-.05-.73-.13-.59-.03.06-.05.17-.05.23.03.29-.03.38-.24.38s-.26-.06-.34-.53c-.03-.17-.04-.17-.11-.05Z" />
      <path
        d="m13.49,23.6c0,.22.05.4.09.4.05,0,.09-.11.09-.26,0-.19.06-.29.2-.38.11-.07.18-.12.16-.13-.51-.07-.54-.05-.54.36Z" />
      <path
        d="m14.32,23.22c-.22.07-.12.17.12.13.15-.03.26-.02.32.05.05.08,0,.11-.22.14-.23.03-.29.08-.29.23,0,.17.04.19.39.2l.38.02v-.29c0-.42-.29-.62-.69-.48Zm.51.48c0,.11-.34.24-.41.15-.03-.04-.03-.11,0-.15.07-.1.41-.1.41,0Z" />
      <path
        d="m15.29,23.6c0,.22.05.4.09.4.05,0,.09-.11.09-.26,0-.28.19-.47.41-.39.09.02.14.14.14.35,0,.17.05.3.09.3.14,0,.11-.66-.02-.73-.06-.03-.27-.06-.45-.06h-.34s0,.39,0,.39Z" />
    </g>
  </g>
</svg>