<?xml version="1.0"?>
<svg viewBox="0 0 512 512" xmlns="http://www.w3.org/2000/svg">
    <title />
    <g data-name="1" id="_1" fill="currentColor" stroke="currentColor">
        <path
            d="M403,450H107.26a53.18,53.18,0,0,1-53.13-53.12V281.12A53.18,53.18,0,0,1,107.26,228H403a53.18,53.18,0,0,1,53.12,53.12V396.88A53.18,53.18,0,0,1,403,450ZM107.26,258a23.15,23.15,0,0,0-23.13,23.12V396.88A23.15,23.15,0,0,0,107.26,420H403a23.14,23.14,0,0,0,23.12-23.12V281.12A23.14,23.14,0,0,0,403,258Z" />
        <path
            d="M342.69,258H167.58a15,15,0,0,1-12.5-23.29L225,129.18a15,15,0,0,1,25,16.58L195.51,228H314.75l-54.5-82.24a15,15,0,1,1,25-16.58l69.94,105.53A15,15,0,0,1,342.69,258Z" />
        <path
            d="M121.79,355.25V324.32c0-20.08,12.49-27.55,28.59-27.55s28.71,7.47,28.71,27.55v30.93c0,20.07-12.6,27.54-28.71,27.54S121.79,375.32,121.79,355.25Zm39.1-30.93c0-8.06-4-11.67-10.51-11.67S140,316.26,140,324.32v30.93c0,8.05,3.86,11.67,10.39,11.67s10.51-3.62,10.51-11.67Z" />
        <path
            d="M150.38,383.17c-18.68,0-29-9.92-29-27.92V324.32c0-18,10.29-27.92,29-27.92s29.09,9.91,29.09,27.92v30.93C179.47,373.25,169.14,383.17,150.38,383.17Zm0-86c-23.32,0-28.22,14.77-28.22,27.17v30.93c0,12.39,4.9,27.17,28.22,27.17,18.28,0,28.34-9.65,28.34-27.17V324.32C178.72,306.8,168.66,297.15,150.38,297.15Zm0,70.14c-7,0-10.76-4.16-10.76-12V324.32c0-7.88,3.72-12.05,10.76-12.05s10.88,4.17,10.88,12.05v30.93C161.26,363.13,157.5,367.29,150.38,367.29Zm0-54.27c-6.64,0-10,3.8-10,11.3v30.93c0,7.49,3.37,11.29,10,11.29s10.13-3.8,10.13-11.29V324.32C160.51,316.82,157.1,313,150.38,313Z" />
        <path
            d="M193.68,302.26c0-2.92,2.69-5.49,6.77-5.49h24.16c15.41,0,27.55,7.24,27.55,26.85v.58c0,19.61-12.61,27.08-28.71,27.08H211.89v25.21c0,3.73-4.55,5.6-9.1,5.6s-9.11-1.87-9.11-5.6Zm18.21,10.39v24.62h11.56c6.53,0,10.5-3.73,10.5-11.67v-1.28c0-7.94-4-11.67-10.5-11.67Z" />
        <path
            d="M202.79,382.47c-4.57,0-9.48-1.87-9.48-6V302.26c0-3.34,3.07-5.86,7.14-5.86h24.16c18,0,27.92,9.66,27.92,27.22v.58c0,17.7-10.33,27.45-29.08,27.45H212.27v24.84C212.27,380.6,207.35,382.47,202.79,382.47Zm-2.34-85.32c-3.64,0-6.39,2.2-6.39,5.11v74.23c0,3.59,4.52,5.23,8.73,5.23s8.73-1.64,8.73-5.23V350.9h11.93c10.58,0,28.33-3.47,28.33-26.7v-.58c0-17.07-9.65-26.47-27.17-26.47Zm23,40.5H211.52V312.27h11.93c7,0,10.88,4.28,10.88,12.05v1.28C234.33,333.37,230.46,337.65,223.45,337.65Zm-11.18-.75h11.18c6.62,0,10.13-3.91,10.13-11.3v-1.28c0-7.39-3.51-11.3-10.13-11.3H212.27Z" />
        <path
            d="M281.22,332.37h17.51c3.5,0,5.48,3.39,5.48,7.12,0,3.15-1.63,6.89-5.48,6.89H281.22v19.84H312.5c3.5,0,5.49,3.73,5.49,8,0,3.74-1.64,7.82-5.49,7.82H271c-4,0-7.94-1.87-7.94-5.6V302.38c0-3.74,4-5.61,7.94-5.61H312.5c3.85,0,5.49,4.09,5.49,7.82,0,4.32-2,8.06-5.49,8.06H281.22Z" />
        <path
            d="M312.5,382.47H271c-4,0-8.31-1.87-8.31-6V302.38c0-4.11,4.31-6,8.31-6H312.5c4.05,0,5.86,4.11,5.86,8.19,0,5-2.41,8.43-5.86,8.43H281.59v19h17.14c3.85,0,5.86,3.77,5.86,7.49,0,3.5-1.84,7.26-5.86,7.26H281.59v19.09H312.5c3.45,0,5.86,3.47,5.86,8.43C318.36,378.35,316.55,382.47,312.5,382.47ZM271,297.15c-3.64,0-7.56,1.63-7.56,5.23v74.11c0,3.59,3.92,5.23,7.56,5.23H312.5c3.53,0,5.11-3.74,5.11-7.45s-1.6-7.68-5.11-7.68H280.84V346h17.89c3.51,0,5.11-3.37,5.11-6.51,0-3.35-1.76-6.74-5.11-6.74H280.84V312.27H312.5c3.51,0,5.11-4,5.11-7.68s-1.58-7.44-5.11-7.44Z" />
        <path
            d="M369.22,377.19l-22.17-40.38v39.68c0,3.73-4.56,5.6-9.11,5.6s-9.1-1.87-9.1-5.6V302.38c0-3.86,4.55-5.61,9.1-5.61,6.54,0,9,.59,13.43,9.11l18.9,36.06V302.26c0-3.85,4.56-5.49,9.11-5.49s9.1,1.64,9.1,5.49v74.23c0,3.73-4.55,5.6-9.1,5.6C375.18,382.09,371.44,381.27,369.22,377.19Z" />
        <path
            d="M379.38,382.47c-3.82,0-8.05-.61-10.49-5.1l-21.47-39.1v38.22c0,4.11-4.91,6-9.48,6s-9.48-1.87-9.48-6V302.38c0-4.13,4.77-6,9.48-6,6.74,0,9.29.72,13.76,9.3l18.2,34.72V302.26c0-4.33,5.1-5.86,9.48-5.86s9.48,1.53,9.48,5.86v74.23C388.86,380.6,383.94,382.47,379.38,382.47Zm-32.71-47.13L369.55,377c2.25,4.14,6.05,4.71,9.83,4.71,4.2,0,8.73-1.64,8.73-5.23V302.26c0-3.77-4.71-5.11-8.73-5.11s-8.73,1.34-8.73,5.11v41.2L351,306.05c-4.41-8.47-6.8-8.9-13.09-8.9-4.34,0-8.73,1.61-8.73,5.23v74.11c0,3.59,4.53,5.23,8.73,5.23s8.73-1.64,8.73-5.23Z" />
        <path
            d="M255.13,157.78A46.89,46.89,0,1,1,302,110.89,46.94,46.94,0,0,1,255.13,157.78Zm0-63.78A16.89,16.89,0,1,0,272,110.89,16.91,16.91,0,0,0,255.13,94Z" />
    </g>
</svg>