<?xml version="1.0" encoding="utf-8"?>
<!-- Generator: Adobe Illustrator 27.2.0, SVG Export Plug-In . SVG Version: 6.00 Build 0)  -->
<svg version="1.1" id="圖層_1" xmlns="http://www.w3.org/2000/svg" xmlns:xlink="http://www.w3.org/1999/xlink" x="0px" y="0px"
	 viewBox="0 0 48 48" style="enable-background:new 0 0 48 48;" xml:space="preserve">
<style type="text/css">
	.st0{fill:#A4714B;stroke:#000000;stroke-width:3;stroke-linecap:round;stroke-linejoin:round;stroke-miterlimit:8;}
	.st1{fill:none;stroke:#000000;stroke-width:3;stroke-linecap:round;stroke-linejoin:round;stroke-miterlimit:8;}
</style>
<g>
	<path class="st0" d="M16,6h16c2.2,0,4,1.8,4,4v3.6c0,1.6,0.4,3.1,1.1,4.5l1.9,3.8c0.7,1.4,1.1,2.9,1.1,4.5V38c0,2.2-1.8,4-4,4H12
		c-2.2,0-4-1.8-4-4V26.4c0-1.6,0.4-3.1,1.1-4.5L12,16v-6C12,7.8,13.8,6,16,6"/>
	<path class="st1" d="M24,30c0,2.2,1.8,4,4,4s4-1.8,4-4s-1.8-4-4-4S24,27.8,24,30 M12,42c2.2,0,4-1.8,4-4V26.4
		c0-1.6-0.4-3.1-1.1-4.5L12,16 M22,14h4"/>
</g>
</svg>
