<?xml version="1.0" encoding="utf-8"?>
<!-- Generator: Adobe Illustrator 27.2.0, SVG Export Plug-In . SVG Version: 6.00 Build 0)  -->
<svg version="1.1" id="圖層_1" xmlns="http://www.w3.org/2000/svg" xmlns:xlink="http://www.w3.org/1999/xlink" x="0px" y="0px"
	 viewBox="0 0 60 50" style="enable-background:new 0 0 60 50;" xml:space="preserve">
<style type="text/css">
	.st0{fill:#A4714B;stroke:#000000;stroke-width:3;stroke-linecap:round;stroke-linejoin:round;stroke-miterlimit:8;}
	.st1{fill:none;stroke:#000000;stroke-width:3;stroke-linecap:round;stroke-linejoin:round;stroke-miterlimit:8;}
</style>
<g>
	<g>
		<g>
			<path class="st0" d="M14,2h16c2.2,0,4,1.8,4,4v3.6c0,1.6,0.4,3.1,1.1,4.5l1.9,3.8c0.7,1.4,1.1,2.9,1.1,4.5V34c0,2.2-1.8,4-4,4H10
				c-2.2,0-4-1.8-4-4V22.4c0-1.6,0.4-3.1,1.1-4.5L10,12V6C10,3.8,11.8,2,14,2"/>
			<path class="st1" d="M22,26c0,2.2,1.8,4,4,4s4-1.8,4-4s-1.8-4-4-4S22,23.8,22,26 M10,38c2.2,0,4-1.8,4-4V22.4
				c0-1.6-0.4-3.1-1.1-4.5L10,12 M20,10h4"/>
		</g>
		<g>
			<path class="st0" d="M22,2h16c2.2,0,4,1.8,4,4v3.6c0,1.6,0.4,3.1,1.1,4.5l1.9,3.8c0.7,1.4,1.1,2.9,1.1,4.5V34c0,2.2-1.8,4-4,4H18
				c-2.2,0-4-1.8-4-4V22.4c0-1.6,0.4-3.1,1.1-4.5L18,12V6C18,3.8,19.8,2,22,2"/>
			<path class="st1" d="M30,26c0,2.2,1.8,4,4,4s4-1.8,4-4s-1.8-4-4-4S30,23.8,30,26 M18,38c2.2,0,4-1.8,4-4V22.4
				c0-1.6-0.4-3.1-1.1-4.5L18,12 M28,10h4"/>
		</g>
		<g>
			<path class="st0" d="M30,2h16c2.2,0,4,1.8,4,4v3.6c0,1.6,0.4,3.1,1.1,4.5l1.9,3.8c0.7,1.4,1.1,2.9,1.1,4.5V34c0,2.2-1.8,4-4,4H26
				c-2.2,0-4-1.8-4-4V22.4c0-1.6,0.4-3.1,1.1-4.5L26,12V6C26,3.8,27.8,2,30,2"/>
			<path class="st1" d="M38,26c0,2.2,1.8,4,4,4c2.2,0,4-1.8,4-4s-1.8-4-4-4C39.8,22,38,23.8,38,26 M26,38c2.2,0,4-1.8,4-4V22.4
				c0-1.6-0.4-3.1-1.1-4.5L26,12 M36,10h4"/>
		</g>
	</g>
	<g>
		<g>
			<path class="st0" d="M10,12h16c2.2,0,4,1.8,4,4v3.6c0,1.6,0.4,3.1,1.1,4.5l1.9,3.8c0.7,1.4,1.1,2.9,1.1,4.5V44c0,2.2-1.8,4-4,4H6
				c-2.2,0-4-1.8-4-4V32.4c0-1.6,0.4-3.1,1.1-4.5L6,22v-6C6,13.8,7.8,12,10,12"/>
			<path class="st1" d="M18,36c0,2.2,1.8,4,4,4s4-1.8,4-4c0-2.2-1.8-4-4-4S18,33.8,18,36 M6,48c2.2,0,4-1.8,4-4V32.4
				c0-1.6-0.4-3.1-1.1-4.5L6,22 M16,20h4"/>
		</g>
		<g>
			<path class="st0" d="M18,12h16c2.2,0,4,1.8,4,4v3.6c0,1.6,0.4,3.1,1.1,4.5l1.9,3.8c0.7,1.4,1.1,2.9,1.1,4.5V44c0,2.2-1.8,4-4,4
				H14c-2.2,0-4-1.8-4-4V32.4c0-1.6,0.4-3.1,1.1-4.5L14,22v-6C14,13.8,15.8,12,18,12"/>
			<path class="st1" d="M26,36c0,2.2,1.8,4,4,4s4-1.8,4-4c0-2.2-1.8-4-4-4S26,33.8,26,36 M14,48c2.2,0,4-1.8,4-4V32.4
				c0-1.6-0.4-3.1-1.1-4.5L14,22 M24,20h4"/>
		</g>
		<g>
			<path class="st0" d="M26,12h16c2.2,0,4,1.8,4,4v3.6c0,1.6,0.4,3.1,1.1,4.5l1.9,3.8c0.7,1.4,1.1,2.9,1.1,4.5V44c0,2.2-1.8,4-4,4
				H22c-2.2,0-4-1.8-4-4V32.4c0-1.6,0.4-3.1,1.1-4.5L22,22v-6C22,13.8,23.8,12,26,12"/>
			<path class="st1" d="M34,36c0,2.2,1.8,4,4,4c2.2,0,4-1.8,4-4c0-2.2-1.8-4-4-4C35.8,32,34,33.8,34,36 M22,48c2.2,0,4-1.8,4-4V32.4
				c0-1.6-0.4-3.1-1.1-4.5L22,22 M32,20h4"/>
		</g>
		<g>
			<path class="st0" d="M34,12h16c2.2,0,4,1.8,4,4v3.6c0,1.6,0.4,3.1,1.1,4.5l1.9,3.8c0.7,1.4,1.1,2.9,1.1,4.5V44c0,2.2-1.8,4-4,4
				H30c-2.2,0-4-1.8-4-4V32.4c0-1.6,0.4-3.1,1.1-4.5L30,22v-6C30,13.8,31.8,12,34,12"/>
			<path class="st1" d="M42,36c0,2.2,1.8,4,4,4s4-1.8,4-4c0-2.2-1.8-4-4-4S42,33.8,42,36 M30,48c2.2,0,4-1.8,4-4V32.4
				c0-1.6-0.4-3.1-1.1-4.5L30,22 M40,20h4"/>
		</g>
	</g>
</g>
</svg>
