<?xml version="1.0" encoding="utf-8"?>
<!-- Generator: Adobe Illustrator 27.2.0, SVG Export Plug-In . SVG Version: 6.00 Build 0)  -->
<svg version="1.1" id="圖層_1" xmlns="http://www.w3.org/2000/svg" xmlns:xlink="http://www.w3.org/1999/xlink" x="0px" y="0px"
	 viewBox="0 0 69 56" style="enable-background:new 0 0 69 56;" xml:space="preserve">
<style type="text/css">
	.st0{fill:#A4714B;stroke:#000000;stroke-width:3;stroke-linecap:round;stroke-linejoin:round;stroke-miterlimit:8;}
	.st1{fill:none;stroke:#000000;stroke-width:3;stroke-linecap:round;stroke-linejoin:round;stroke-miterlimit:8;}
</style>
<g>
	<g>
		<g>
			<path class="st0" d="M10.6,2h16c2.2,0,4,1.8,4,4v3.6c0,1.6,0.4,3.1,1.1,4.5l1.9,3.8c0.7,1.4,1.1,2.9,1.1,4.5V34c0,2.2-1.8,4-4,4
				h-24c-2.2,0-4-1.8-4-4V22.4c0-1.6,0.4-3.1,1.1-4.5L6.6,12V6C6.6,3.8,8.3,2,10.6,2"/>
			<path class="st1" d="M18.6,26c0,2.2,1.8,4,4,4s4-1.8,4-4s-1.8-4-4-4S18.6,23.8,18.6,26 M6.6,38c2.2,0,4-1.8,4-4V22.4
				c0-1.6-0.4-3.1-1.1-4.5L6.6,12 M16.6,10h4"/>
		</g>
		<g>
			<path class="st0" d="M18.6,2h16c2.2,0,4,1.8,4,4v3.6c0,1.6,0.4,3.1,1.1,4.5l1.9,3.8c0.7,1.4,1.1,2.9,1.1,4.5V34c0,2.2-1.8,4-4,4
				h-24c-2.2,0-4-1.8-4-4V22.4c0-1.6,0.4-3.1,1.1-4.5l2.9-5.9V6C14.6,3.8,16.3,2,18.6,2"/>
			<path class="st1" d="M26.6,26c0,2.2,1.8,4,4,4s4-1.8,4-4s-1.8-4-4-4S26.6,23.8,26.6,26 M14.6,38c2.2,0,4-1.8,4-4V22.4
				c0-1.6-0.4-3.1-1.1-4.5L14.6,12 M24.6,10h4"/>
		</g>
		<g>
			<path class="st0" d="M26.6,2h16c2.2,0,4,1.8,4,4v3.6c0,1.6,0.4,3.1,1.1,4.5l1.9,3.8c0.7,1.4,1.1,2.9,1.1,4.5V34c0,2.2-1.8,4-4,4
				h-24c-2.2,0-4-1.8-4-4V22.4c0-1.6,0.4-3.1,1.1-4.5l2.9-5.9V6C22.6,3.8,24.3,2,26.6,2"/>
			<path class="st1" d="M34.6,26c0,2.2,1.8,4,4,4c2.2,0,4-1.8,4-4s-1.8-4-4-4C36.3,22,34.6,23.8,34.6,26 M22.6,38c2.2,0,4-1.8,4-4
				V22.4c0-1.6-0.4-3.1-1.1-4.5L22.6,12 M32.6,10h4"/>
		</g>
		<g>
			<path class="st0" d="M34.6,2h16c2.2,0,4,1.8,4,4v3.6c0,1.6,0.4,3.1,1.1,4.5l1.9,3.8c0.7,1.4,1.1,2.9,1.1,4.5V34c0,2.2-1.8,4-4,4
				h-24c-2.2,0-4-1.8-4-4V22.4c0-1.6,0.4-3.1,1.1-4.5l2.9-5.9V6C30.6,3.8,32.3,2,34.6,2"/>
			<path class="st1" d="M42.6,26c0,2.2,1.8,4,4,4c2.2,0,4-1.8,4-4s-1.8-4-4-4C44.3,22,42.6,23.8,42.6,26 M30.6,38c2.2,0,4-1.8,4-4
				V22.4c0-1.6-0.4-3.1-1.1-4.5L30.6,12 M40.6,10h4"/>
		</g>
		<g>
			<path class="st0" d="M42.6,2h16c2.2,0,4,1.8,4,4v3.6c0,1.6,0.4,3.1,1.1,4.5l1.9,3.8c0.7,1.4,1.1,2.9,1.1,4.5V34c0,2.2-1.8,4-4,4
				h-24c-2.2,0-4-1.8-4-4V22.4c0-1.6,0.4-3.1,1.1-4.5l2.9-5.9V6C38.6,3.8,40.3,2,42.6,2"/>
			<path class="st1" d="M50.6,26c0,2.2,1.8,4,4,4c2.2,0,4-1.8,4-4s-1.8-4-4-4C52.3,22,50.6,23.8,50.6,26 M38.6,38c2.2,0,4-1.8,4-4
				V22.4c0-1.6-0.4-3.1-1.1-4.5L38.6,12 M48.6,10h4"/>
		</g>
	</g>
	<g>
		<g>
			<path class="st0" d="M14.6,10h16c2.2,0,4,1.8,4,4v3.6c0,1.6,0.4,3.1,1.1,4.5l1.9,3.8c0.7,1.4,1.1,2.9,1.1,4.5V42c0,2.2-1.8,4-4,4
				h-24c-2.2,0-4-1.8-4-4V30.4c0-1.6,0.4-3.1,1.1-4.5l2.9-5.9v-6C10.6,11.8,12.3,10,14.6,10"/>
			<path class="st1" d="M22.6,34c0,2.2,1.8,4,4,4s4-1.8,4-4s-1.8-4-4-4S22.6,31.8,22.6,34 M10.6,46c2.2,0,4-1.8,4-4V30.4
				c0-1.6-0.4-3.1-1.1-4.5L10.6,20 M20.6,18h4"/>
		</g>
		<g>
			<path class="st0" d="M22.6,10h16c2.2,0,4,1.8,4,4v3.6c0,1.6,0.4,3.1,1.1,4.5l1.9,3.8c0.7,1.4,1.1,2.9,1.1,4.5V42c0,2.2-1.8,4-4,4
				h-24c-2.2,0-4-1.8-4-4V30.4c0-1.6,0.4-3.1,1.1-4.5l2.9-5.9v-6C18.6,11.8,20.3,10,22.6,10"/>
			<path class="st1" d="M30.6,34c0,2.2,1.8,4,4,4c2.2,0,4-1.8,4-4s-1.8-4-4-4C32.3,30,30.6,31.8,30.6,34 M18.6,46c2.2,0,4-1.8,4-4
				V30.4c0-1.6-0.4-3.1-1.1-4.5L18.6,20 M28.6,18h4"/>
		</g>
		<g>
			<path class="st0" d="M30.6,10h16c2.2,0,4,1.8,4,4v3.6c0,1.6,0.4,3.1,1.1,4.5l1.9,3.8c0.7,1.4,1.1,2.9,1.1,4.5V42c0,2.2-1.8,4-4,4
				h-24c-2.2,0-4-1.8-4-4V30.4c0-1.6,0.4-3.1,1.1-4.5l2.9-5.9v-6C26.6,11.8,28.3,10,30.6,10"/>
			<path class="st1" d="M38.6,34c0,2.2,1.8,4,4,4c2.2,0,4-1.8,4-4s-1.8-4-4-4C40.3,30,38.6,31.8,38.6,34 M26.6,46c2.2,0,4-1.8,4-4
				V30.4c0-1.6-0.4-3.1-1.1-4.5L26.6,20 M36.6,18h4"/>
		</g>
		<g>
			<path class="st0" d="M38.6,10h16c2.2,0,4,1.8,4,4v3.6c0,1.6,0.4,3.1,1.1,4.5l1.9,3.8c0.7,1.4,1.1,2.9,1.1,4.5V42c0,2.2-1.8,4-4,4
				h-24c-2.2,0-4-1.8-4-4V30.4c0-1.6,0.4-3.1,1.1-4.5l2.9-5.9v-6C34.6,11.8,36.3,10,38.6,10"/>
			<path class="st1" d="M46.6,34c0,2.2,1.8,4,4,4c2.2,0,4-1.8,4-4s-1.8-4-4-4C48.3,30,46.6,31.8,46.6,34 M34.6,46c2.2,0,4-1.8,4-4
				V30.4c0-1.6-0.4-3.1-1.1-4.5L34.6,20 M44.6,18h4"/>
		</g>
	</g>
	<g>
		<g>
			<path class="st0" d="M10.4,18h16c2.2,0,4,1.8,4,4v3.6c0,1.6,0.4,3.1,1.1,4.5l1.9,3.8c0.7,1.4,1.1,2.9,1.1,4.5V50c0,2.2-1.8,4-4,4
				h-24c-2.2,0-4-1.8-4-4V38.4c0-1.6,0.4-3.1,1.1-4.5L6.4,28v-6C6.4,19.8,8.2,18,10.4,18"/>
			<path class="st1" d="M18.4,42c0,2.2,1.8,4,4,4s4-1.8,4-4c0-2.2-1.8-4-4-4S18.4,39.8,18.4,42 M6.4,54c2.2,0,4-1.8,4-4V38.4
				c0-1.6-0.4-3.1-1.1-4.5L6.4,28 M16.4,26h4"/>
		</g>
		<g>
			<path class="st0" d="M18.4,18h16c2.2,0,4,1.8,4,4v3.6c0,1.6,0.4,3.1,1.1,4.5l1.9,3.8c0.7,1.4,1.1,2.9,1.1,4.5V50c0,2.2-1.8,4-4,4
				h-24c-2.2,0-4-1.8-4-4V38.4c0-1.6,0.4-3.1,1.1-4.5l2.9-5.9v-6C14.4,19.8,16.2,18,18.4,18"/>
			<path class="st1" d="M26.4,42c0,2.2,1.8,4,4,4s4-1.8,4-4c0-2.2-1.8-4-4-4S26.4,39.8,26.4,42 M14.4,54c2.2,0,4-1.8,4-4V38.4
				c0-1.6-0.4-3.1-1.1-4.5L14.4,28 M24.4,26h4"/>
		</g>
		<g>
			<path class="st0" d="M26.4,18h16c2.2,0,4,1.8,4,4v3.6c0,1.6,0.4,3.1,1.1,4.5l1.9,3.8c0.7,1.4,1.1,2.9,1.1,4.5V50c0,2.2-1.8,4-4,4
				h-24c-2.2,0-4-1.8-4-4V38.4c0-1.6,0.4-3.1,1.1-4.5l2.9-5.9v-6C22.4,19.8,24.2,18,26.4,18"/>
			<path class="st1" d="M34.4,42c0,2.2,1.8,4,4,4c2.2,0,4-1.8,4-4c0-2.2-1.8-4-4-4C36.2,38,34.4,39.8,34.4,42 M22.4,54
				c2.2,0,4-1.8,4-4V38.4c0-1.6-0.4-3.1-1.1-4.5L22.4,28 M32.4,26h4"/>
		</g>
		<g>
			<path class="st0" d="M34.4,18h16c2.2,0,4,1.8,4,4v3.6c0,1.6,0.4,3.1,1.1,4.5l1.9,3.8c0.7,1.4,1.1,2.9,1.1,4.5V50c0,2.2-1.8,4-4,4
				h-24c-2.2,0-4-1.8-4-4V38.4c0-1.6,0.4-3.1,1.1-4.5l2.9-5.9v-6C30.4,19.8,32.2,18,34.4,18"/>
			<path class="st1" d="M42.4,42c0,2.2,1.8,4,4,4c2.2,0,4-1.8,4-4c0-2.2-1.8-4-4-4C44.2,38,42.4,39.8,42.4,42 M30.4,54
				c2.2,0,4-1.8,4-4V38.4c0-1.6-0.4-3.1-1.1-4.5L30.4,28 M40.4,26h4"/>
		</g>
		<g>
			<path class="st0" d="M42.4,18h16c2.2,0,4,1.8,4,4v3.6c0,1.6,0.4,3.1,1.1,4.5l1.9,3.8c0.7,1.4,1.1,2.9,1.1,4.5V50c0,2.2-1.8,4-4,4
				h-24c-2.2,0-4-1.8-4-4V38.4c0-1.6,0.4-3.1,1.1-4.5l2.9-5.9v-6C38.4,19.8,40.2,18,42.4,18"/>
			<path class="st1" d="M50.4,42c0,2.2,1.8,4,4,4c2.2,0,4-1.8,4-4c0-2.2-1.8-4-4-4C52.2,38,50.4,39.8,50.4,42 M38.4,54
				c2.2,0,4-1.8,4-4V38.4c0-1.6-0.4-3.1-1.1-4.5L38.4,28 M48.4,26h4"/>
		</g>
	</g>
</g>
</svg>
