<?xml version="1.0" encoding="UTF-8"?>
<svg id="a" data-name="圖層 1" xmlns="http://www.w3.org/2000/svg"
  fill="currentColor"
  viewBox="0 0 100 99.91">
  <path
    d="m0,53.03v-2.34c.58-1.3,1.8-1.14,2.76-1.17.25-1.43.51-2.72.69-4.03.04-.28-.17-.63-.36-.88-.63-.86-1.45-1.62-1.92-2.55C.63,40.96.38,39.74,0,38.57c0-.78,0-1.56,0-2.34.44-1.25.8-2.53,1.34-3.73.29-.63.29-1.08-.02-1.69-1.96-3.9-1.18-8.74,2.04-11.4,1.23-1.01,2.15-2.15,3.06-3.41,2.7-3.75,7.08-4.33,10.62-1.37,1.28,1.07,2.29,2.47,3.45,3.7.25.27.55.6.88.68,3.2.7,6.19,1.77,8.23,4.69,0-.83-.06-1.54.01-2.23.22-1.97,1.31-3.55,2.61-4.92,1.09-1.14,1.24-2.34,1.13-3.82-.27-3.5.25-6.9,2.19-9.92,2.36-3.67,5.22-3.75,7.8-.21.9,1.23,1.69,2.56,2.38,3.91.63,1.22,1.45,1.99,2.82,2.27.91.18,1.82.53,2.66.94,2,.97,3.52,2.41,3.78,4.74.12,1.05-.02,2.14-.09,3.21-.12,1.8.24,2.36,2,2.75,1.21.27,2.06.93,2.57,2.04.26.56.54,1.12.68,1.72.36,1.52.66,3.07,1,4.69.19-.22.34-.48.56-.66,1.67-1.39,3.31-2.82,5.04-4.13.97-.74,1.97-.53,2.45.29.46.8.14,1.63-.84,2.27-.71.46-1.42.92-2.08,1.45-1.68,1.34-3.13,2.89-4.3,4.77.32.24.58.42.85.62.22-.28.39-.51.57-.75,1.86-2.44,4.11-4.35,7.14-5.16,3.89-1.05,7.13.71,8.35,4.52.05.14.1.29.15.44,2.01-1,2.21-1.43,1.53-3.39-.95-2.77-3.07-4.32-6.02-4.41-.39-.01-.8.03-1.16-.09-.74-.25-1.09-.84-.98-1.6.12-.87.7-1.25,1.56-1.32,4.4-.32,8.23,2.34,9.6,6.72.09.29.2.58.28.82,1.18-.38,2.24-.82,3.35-1.04,1.14-.23,2.32-.22,3.48-.35.21-.02.52-.19.58-.36.65-1.87.94-3.71-.34-5.49-.26-.37-.3-.95-.32-1.44-.02-.84.14-1.69.07-2.52-.22-2.76-2.14-4.28-4.87-3.87-1.02.16-2.12.29-3.01.76-1.92,1.01-3.63.81-5.63.07-4-1.48-6.4-.63-8.79,2.61-1.06,1.43-1.31,1.49-3.01.77-1.94-.82-3.86-1.11-5.79.09-1.06.66-1.98.5-2.45-.33-.48-.84-.15-1.65.94-2.31,2.2-1.35,4.55-1.52,6.95-.77.92.29,1.42.12,2.05-.59,2.12-2.39,4.77-3.59,8.01-3.05,1.4.24,2.76.7,4.16.99.47.1,1,.1,1.46-.02,1.26-.32,2.47-.82,3.74-1.09,5.46-1.15,9.34,2.01,9.33,7.59,0,1.08.02,2.1.56,3.1.27.49.42,1.13.4,1.69-.05,1.7-.21,3.39-.34,5.19,2.94,1.91,4.3,3.55,5.13,6.34.19.65.34,1.31.51,1.96v2.54c-.06.15-.15.29-.17.45-.34,2.93-1.58,5.5-3.19,7.93-.28.42-.56.84-.95,1.42.8,0,1.44.04,2.07,0,1.01-.09,1.77.24,2.24,1.15v2.15c-.06.31-.13.62-.18.94-.6,3.98-.98,8.01-1.84,11.93-2.77,12.52-9.36,22.73-19.33,30.75-1.58,1.27-3.34,2.31-5.02,3.46H26.37c-.22-.17-.44-.34-.67-.51-2.33-1.71-4.81-3.24-6.95-5.16C8.06,84.64,2.39,72.46.61,58.34c-.22-1.77-.41-3.54-.61-5.31Zm3.04-.36c.35,2.72.61,5.37,1.06,7.98,1.34,7.83,3.82,15.25,8.42,21.83,3.74,5.36,8.11,10.08,13.65,13.65.79.51,1.59.76,2.55.76,14.19-.02,28.38-.02,42.57,0,.96,0,1.76-.22,2.55-.74,7.52-5.01,13.17-11.66,17.19-19.7,3.06-6.11,4.6-12.69,5.46-19.43.18-1.43.26-2.88.39-4.34H3.04Zm31.45-16.53c.8-.46.74-.97.37-1.66-.98-1.81-2.64-2.52-4.51-2.9-2.12-.43-2.12-.41-2.35-2.59-.01-.13-.02-.26-.04-.39-.3-2.79-1.57-4.86-4.36-5.76-1.08-.35-2.17-.67-3.29-.88-.86-.16-1.41-.57-1.96-1.26-1.11-1.39-2.24-2.81-3.59-3.94-1.78-1.5-3.81-1.26-5.38.46-.66.73-1.07,1.69-1.63,2.52-.26.39-.53.91-.92,1.05-2.03.73-2.88,2.35-3.34,4.24-.2.84-.15,1.75-.21,2.62.12.04.24.08.36.12.22-.27.42-.57.67-.81,2.77-2.69,7.5-2.61,9.98.22.54.62,1.01.78,1.81.62,2.18-.43,4.28-.16,6.16,1.13.83.57,1.05,1.46.59,2.19-.46.73-1.37.93-2.22.37-1.07-.7-2.22-.92-3.44-.76-.76.1-1.51.34-2.26.56-1.01.3-1.66.06-2.12-.83-.97-1.86-2.19-2.59-3.93-2.37-2,.25-3.17,1.34-3.69,3.35-.14.55-.39,1.1-.69,1.58-.94,1.53-1.55,3.15-1.4,4.98.13,1.63.67,3.07,1.97,4.22.26-.28.46-.5.65-.71,1.82-2,4.06-3.21,6.76-3.55,1.17-.14,1.94.29,2.1,1.2.16.9-.49,1.47-1.6,1.81-1.32.4-2.73.79-3.82,1.57-2.33,1.65-3.32,4.04-3.1,7.01,3.54,0,6.99,0,10.43,0,.22,0,.43-.03.8-.06-1.53-2.58-2.05-5.27-1.47-8.12.6-2.92,2.17-5.19,4.62-6.85,3.57-2.43,9.47-2.9,14.04,1.64Zm3.46,13.32h19.42c.61-4.89-3.95-9.07-8.72-8.08-2.34.48-4.08,1.77-5.24,3.86-.55.99-1.24,1.3-2.05.96-.94-.39-1.19-1.31-.64-2.38,2.03-4,6.49-6.17,11.15-5.43,4.3.68,7.87,4.32,8.49,8.69.11.79.16,1.59.24,2.38h1.52c.17-2.97-.65-5.57-2.33-7.93-.64-.9-.54-1.8.19-2.33.72-.52,1.64-.31,2.27.55,1.27,1.72,2.19,3.62,2.58,5.73.25,1.33.35,2.68.51,3.97h1.55c-.07-1.03-.07-1.97-.22-2.9-1.1-6.93-4.95-11.72-11.63-13.83-6.81-2.15-12.78-.33-17.64,4.89-1.46,1.57-1.18.96-.34,3.08.31-.42.59-.81.88-1.19,4.27-5.63,12.07-7.58,18.4-4.59,1.09.51,1.5,1.28,1.13,2.14-.4.93-1.23,1.18-2.39.65-2.35-1.07-4.79-1.35-7.33-.91-5.85,1.01-10.44,6.89-9.8,12.67Zm13.7-20.73c2.16.53,4.15,1.03,6.14,1.52.22-2.25-.02-3.97-.76-5.85-.24-.62-.57-.97-1.29-1.14-2.67-.63-4.08-2.64-3.9-5.39.05-.71.08-1.43.16-2.14.15-1.46-.56-2.43-1.76-3.09-.51-.28-1.06-.56-1.62-.65-2.97-.49-4.91-2.18-6.05-4.92-.25-.59-.63-1.14-.99-1.68-.4-.59-.83-1.17-1.27-1.73-.51-.64-1.09-.77-1.56,0-.6.96-1.25,1.91-1.63,2.96-.77,2.1-.97,4.31-.68,6.54.24,1.86-.16,3.47-1.47,4.85-.53.56-.96,1.23-1.44,1.84-1.08,1.38-1.18,2.86-.41,4.39.67,1.34,1.42,2.63,2.1,3.96.35.69.62,1.43.94,2.13.43.94.89,1.87,1.35,2.84,1.16-.77,2.13-1.41,3.18-2.1-1.25-.77-2.43-1.45-3.56-2.2-.75-.5-.91-1.34-.48-2.05.42-.7,1.26-.93,2.04-.52.6.32,1.18.69,1.76,1.05.65.39,1.29.77,2.17,1.3-.42-1.31-.85-2.31-1.04-3.35-.42-2.3-1.47-4.11-3.55-5.26-.19-.11-.36-.28-.5-.46-.72-.9-.26-2.2.87-2.44.27-.06.56-.03.9-.05-.03-.27-.04-.49-.08-.7-.46-2.56-.94-5.11-1.38-7.67-.19-1.1.28-1.86,1.18-2.01.99-.16,1.64.39,1.82,1.54.2,1.31.42,2.61.63,3.97.17-.09.27-.11.33-.17.61-.67,1.33-.85,2.09-.32.77.53.77,1.28.45,2.09-.33.81-.54,1.69-.97,2.44-1.06,1.82-.14,3.45.35,5.15.87-1.63,1.62-3.28,2.39-4.92.52-1.11,1.36-1.51,2.23-1.09.81.4,1.02,1.27.53,2.35-.97,2.13-1.86,4.3-2.96,6.36-.75,1.41-.92,2.72-.17,4.12.18.34.55.93.65.9.72-.27,1.77.29,2.17-.87.38-1.1.89-2.16,1.35-3.24.57-1.35,1.28-1.8,2.24-1.44.94.36,1.14,1.3.56,2.66-.35.83-.7,1.66-1.04,2.48Zm33.67,13.8c.41-.39.65-.59.85-.82,1.78-2.03,3.56-4.06,5.33-6.1.84-.97,1.66-1.16,2.43-.5.73.63.72,1.46-.04,2.41-.47.58-.94,1.16-1.54,1.88,1.72-.33,2.49-.03,2.73.91.24.95-.27,1.59-1.68,2.09-1.62.58-3.25,1.13-4.87,1.73-.38.14-.76.37-1.06.65-1.47,1.38-2.92,2.78-4.38,4.18-.14.14-.24.31-.44.58,2.95,0,5.75,0,8.54-.02.25,0,.57-.16.74-.35,2.42-2.71,4.31-5.7,4.88-9.38.66-4.23-1.85-8.07-5.83-8.78-1.79-.32-3.49.09-5.13.8-2.68,1.17-4.85,3.02-6.75,5.2-3.09,3.52-5.47,7.51-7.64,11.64-.13.25-.23.51-.36.81h4.03c.04-.2.07-.32.1-.45.31-1.66.59-3.33.94-4.98.19-.91.88-1.33,1.73-1.17.88.17,1.25.75,1.21,1.62-.02.32-.08.64-.14.96-.18,1.09-.37,2.18-.55,3.27,1.09-.69,2.01-1.41,2.83-2.24.36-.36.66-.89.73-1.39.22-1.54.33-3.1.48-4.66.14-1.46.26-2.92.44-4.37.12-.99.75-1.48,1.65-1.42.88.06,1.39.67,1.37,1.67,0,.39-.07.78-.11,1.17-.16,1.6-.31,3.2-.49,5.04Zm-58.95,7.01c1.5,0,2.99.03,4.49-.02.4-.02.89-.21,1.17-.49,1.64-1.66,2.36-3.69,2.22-6.02-.22-3.43-2.67-6.29-6.11-7.08-3.29-.76-6.79.79-8.48,3.78-1.71,3.01-1.24,6.85,1.18,9.27.32.32.88.53,1.34.55,1.39.07,2.79.03,4.19.03Zm43.27-4.01c.32-.55.49-.86.68-1.14,1.63-2.5,3.21-5.04,4.94-7.46.66-.92.93-1.82.83-2.88-.28-3.08-2.31-4.4-5.25-3.37-2.4.84-4.14,2.51-5.48,4.61-.13.21-.08.7.08.9,2.13,2.67,3.49,5.68,4.19,9.34ZM31.02,27q-.07,1.61.94,1.7c-.33-.6-.64-1.15-.94-1.7Z" />
  <path
    d="m78.4,87.92c-.48-.36-1.11-.6-1.25-1.02-.17-.49-.1-1.25.18-1.69.58-.89,1.39-1.62,2.09-2.44,3.55-4.18,6.29-8.82,8.06-14.02.39-1.14,1.12-1.56,2.05-1.25.88.29,1.2,1.14.82,2.26-2.21,6.58-5.9,12.25-10.64,17.28-.32.33-.78.53-1.29.88Z" />
  <path
    d="m92.37,62.1c-.04,1.44-.67,2.28-1.71,2.27-.88-.01-1.5-.67-1.48-1.57.03-1.47.72-2.38,1.77-2.33.86.04,1.44.71,1.42,1.63Z" />
</svg>