<?xml version="1.0" encoding="UTF-8"?>
<svg id="a" data-name="圖層 1" xmlns="http://www.w3.org/2000/svg" viewBox="0 0 300 450">
  <defs>
    <style>
      .b {
      fill: none;
      stroke: currentColor;
      }
    </style>
  </defs>
  <path class="b"
    d="m100.05,111.85l-6.2,6.8-1.6,2.6-1.4,4.6-4.3,7.5-1.2,5.6-1,3-1.6,1.2-.3,1.5-.3.4v.2l-5.3,6.1-1.2,1.2-.5,1.3-.3,4.6-.5,1.4-2.4,1.9-.6,1.3-.3,1.4-.8.6-1,.5-1.2.8-1.4,1.4-1.2,2.1-2.7,7.4-1.9,3.6-1.2,3.6-1,1.3-3.3,3.1-.6,1.3-.7,3.3-.4.6.16.09-.36.71-2.6,2-.4.7-.5,1.3-2.9,3.7-.6,1.4-1.1,4-.6,4.6-2.1,3.6-1.3,4.5-.3,5.7.1,7.6-2.2,2.4h.6l.1-.1-.2.2h-.5l.1,4,4-.3-1.9,2.4-.4,1.2-.8,1-.2.8,1.4.7v.9l-.9,1.7,2,3.7,1.7,4.8h-2.5l-1.7.1-1.2,2.6v1.5l1.2.1.8.3,1-.8.4,1.5-.6-.2-1.5.6-1.06.06-.44-.16-.08.19h-.22s.18.1.18.1l-.68,1.61,1.7,1.2-1.2.3-.8.8-1.6,4.2-.2,1,.2,1.1-1,1.2-.6,1.7-.5,1.4.6,1.5.4,1.8-.6,1.2-1.2.4-1.2.6-.3,1.9,1.3,1.5,2,1.7.3,1.2h-3.6v.9l4.3,1.1.6.7-.5,1.4-1.4.4-1.7.3-1.4.7-.6,1.1-.3,1.5.4,1.6,1.4,1.2,1.2-.3.9-1.3,1-1,1.9.8.3,1.2-.2,3.2.6,1,1.6.1.8-1.2.5-1.5.5-.9,3,.4.5,2.4-1.2,2.8-2.3,1.6,1.8,1.8.8,1.7.5,2.9,2.9-1.5-2.9,1.7,1,6.4.3.9,1.4,2.2.3,1.1.6.6.6.4.3.6-.2,1.1-.7,1.7v1.3l.5,2.1,2.1,4.7,2.3,3.5,1.2,2.6.7,2.6-.5,1.9-1,2.1.8,2.2,1.6,2,4.2,3.8,2.5,2.8.8,1.5,1,1.9.6,3.3-6-7.1,5.7,8,6.1,4.7,1-.1.9-.3h.7l1.3.6.1.1.1.1,1,.6,2.3,1.9,2.1,1.5,4.7,2.2,2,1.3.3.6.5,1.7.5.4.5.2,1.5.8,3.8,3,.9,1.3,2.1,4.6,2.6,3.1.7,1.3,9.3,23.9-.3,1.4-1.2,1.6-.3,1.5v4.9l-.2,1.5v.9l.2,1.2,2.6,4.3-.6,3.2.1,1.1,1.7,1.4,1.6.4,1.1-1.1.1-3,3.7.9,3.7,1.6,3.2,2.4,2.1,3.1.1-2.7-.6-4.2-.1-3.8,1.9-1.7,1.6-1.2,1.2-2.8.7-3.4-.4-23.9-2.1.3-.27-.12,1.87-.18-.1-6.7.8-7.4.6-2.6,4.5-7.8,2.3-7.8.8-5.6,1.6-2.8,3.8-4.7,1.2-2.3,2.5-6.2,1-1.3,1.2-.6,5.1-5.5,7.5-5,2.2-2.1,2.2-2.8,1-1.7.6-1.5.1-1.3-.3-2.9.3-1.2,1.6-1.8,6.5-5.4.6-1.3,4.8-6.9,1-2.7,1.4-6,2.3-3.9.8-2.7.5-1,1-1,2.2-1.6,1-1,2.3-4.6.5-4.4-.1-4.7.7-5.4,1-2.8,1.2-2.2,3.3-4.4,1-2.2,2.1-12.2v-.1l5.2-29.6,2.2-4.6,3.8-18.5,3-8,1.5-7.5.2-3,.3-1.6,1.7-2.6.5-1.7-.1-1.5-.4-.6-.6-.4-.7-1-.8-2.4-.1-2.2.7-2.1,3.5-5,1.3-5.6,1.3-2.8,1.2-1.2,3.2-2.3.4-.7-.3-1,.6-.9,2.1-1.7,3-4,2.7-2.6.6-1.1-.1-.4-.3-.7-.4-.7-.3-.3h.1l-.1-.1-.5-.8.3-.6.5-.6.3-.8.2-3,.4-1.5.6-1,.5-1.3-.2-3.2.1-1.5,3.2-3.7,2.9-1.7,1.2-1.1-.3-1.3-.8-1.3-.4-1.3.2-1.2,2.8-1.5.4-2.6-.6-3-1.2-2.3.8-.6,1.2-.4,1.4-.1,1.5.1v-.7l-3.6-.7-3-1.9-1.6-2.9-.1-3.7.6-1.8.1-1.9-1.6-7.2-.1-3.4.3-3.5.7-3.6,1.1-3.1,1.4-2.2,8.7-10.5,2.6-2.2,5.6-2.8-.16-.12,4.06-1.98-1-1.2-1.7-.8-1.9-.5-1.7-.2-3.2.5-1-.4-1.2-1.9-1.1-4-.3-2.4.2-1.3.8-1.7-1.6-1-16.1-3.9-.1-.1-5.2-1.2-1.8-.7-.8-.7-.3-.5-.7-.4-.4.24-.8-.64-.5-.6v-1l.5-.8.5-.6.1-.4-1-.3-1.5.1-1.2.4-.6.2-1.6-3.5-4.7-6.5-2.1-1.6-5.1-.6-5.1,1.2-4.5,2.2-3,2.8-1.5,2.7-1,2.4-.4.4-.8.4-.8.7-.5,1.2,1.4.9,2.7,2.7,1.7,2.6-1.6.6-.7-.7-.6-1.3-.8-1.2-1.7-.5h-1.4l-1,.2-.8.4-2.9,2.4-2.2.8-5.2,1-.3-.1-9.4,1.7-4.1,1.5-2.1,1.2-1.7,1.5-2,1.2-8.6,2.8-3.4,2.8-3.2,3.8-4.1,6.6-1,1.5-1,2.8-.3,1.4.1.6-1.2.4-1.2,1-1,1.3-.4,1.3-.3,1.7-.8,1.1v.1l-.8.8-.7,1.4.5,1,.3.8v.8l-.3.8-1,1.3-2.6,5.3-.49,1.84-.11-.04-.2.6-1.7.8-.4.8-.8,2.7-1.7,1.7-1.2,1.7.5,2.5-3.4-.6-2.6.7-2.2,1.5-1.9,2.1-.6,1.2-.5,1.2-.9,1-3.1.9-.7,1.3-.8,2.9-2.8,4.8-1,2.6-.5,3.1-.8,1.9-3.4,3.7" />
</svg>