<?xml version="1.0" encoding="UTF-8"?>
<svg id="_圖層_2" data-name="圖層 2" xmlns="http://www.w3.org/2000/svg" viewBox="0 0 100 100">
  <g id="_圖層_1-2" data-name="圖層 1">
    <path d="m16.67,0C7.46,0,0,7.46,0,16.67v66.67c0,9.2,7.46,16.67,16.67,16.67h66.67c9.2,0,16.67-7.46,16.67-16.67V16.67c0-9.2-7.46-16.67-16.67-16.67H16.67Zm4.97,21.43h18.9l13.42,19.07,16.29-19.07h5.95l-19.55,22.89,24.11,34.25h-18.89l-15.57-22.13-18.9,22.13h-5.95l22.16-25.94-21.96-31.2Zm9.11,4.76l33.59,47.62h7.3L38.04,26.19h-7.3Z"/>
  </g>
</svg>